<?xml version="1.0" encoding="UTF-8"?>
<svg version="1.1" xmlns="http://www.w3.org/2000/svg" width="512" height="512">
<path d="M0 0 C0.7115625 0.06445312 1.423125 0.12890625 2.15625 0.1953125 C9.1002999 2.20908697 12.6025787 7.22373911 16.5 12.875 C17.056875 13.66390625 17.61375 14.4528125 18.1875 15.265625 C19.96903487 17.79476825 21.73527552 20.33410567 23.5 22.875 C24.66596943 24.54215451 25.83263235 26.20882424 27 27.875 C28.75796844 30.38526108 30.51481908 32.89625433 32.26757812 35.41015625 C36.12512299 40.93802232 40.03932466 46.42063931 44 51.875 C49.17253046 58.99824146 54.23625341 66.19191991 59.26953125 73.4140625 C63.12738441 78.9399453 67.0401714 84.42180538 71 89.875 C76.17253046 96.99824146 81.23625341 104.19191991 86.26953125 111.4140625 C90.64168792 117.67661951 95.09515092 123.87557011 99.58349609 130.05517578 C104.44093128 136.75810943 109.19020874 143.53463061 113.91992188 150.328125 C114.47486328 151.12476563 115.02980469 151.92140625 115.6015625 152.7421875 C116.08963379 153.44456543 116.57770508 154.14694336 117.08056641 154.87060547 C118.07661926 156.27714038 119.11437954 157.65461783 120.18115234 159.00830078 C121.5 160.875 121.5 160.875 121.5 162.875 C130.59916618 156.6890546 139.60239606 150.39299617 148.50341797 143.92504883 C154.1267876 139.84669911 159.80047058 135.84608278 165.5 131.875 C171.87573013 127.43173674 178.21173109 122.94121647 184.5 118.375 C191.61267007 113.21014594 198.7931535 108.15018451 206.00830078 103.12963867 C210.21908623 100.19344046 214.40634115 97.23096164 218.5546875 94.20703125 C219.36550781 93.61599609 220.17632812 93.02496094 221.01171875 92.41601562 C222.54073985 91.29768201 224.06698022 90.17553227 225.58984375 89.04882812 C235.97603654 81.44846462 235.97603654 81.44846462 241.875 81.4375 C242.56335938 81.41816406 243.25171875 81.39882812 243.9609375 81.37890625 C250.83607934 82.72220319 255.13615769 85.94276096 259.11328125 91.609375 C259.61214844 92.35703125 260.11101562 93.1046875 260.625 93.875 C261.17285156 94.66390625 261.72070312 95.4528125 262.28515625 96.265625 C263.44637618 97.94030952 264.60021042 99.62013641 265.74707031 101.3046875 C268.04973031 104.68106695 270.39626615 108.02572486 272.74365234 111.37109375 C273.9207372 113.04918415 275.09552018 114.7288914 276.26806641 116.41015625 C280.12484266 121.93845143 284.0393796 127.42071497 288 132.875 C293.17192567 139.99740859 298.23591432 147.18966856 303.26733398 154.41186523 C307.14182201 159.963202 311.07948317 165.4636333 315.0625 170.9375 C319.51031557 177.05080311 323.82345543 183.24028733 328.0625 189.5 C332.57228834 196.15617989 337.25597562 202.63413755 342.12353516 209.03222656 C346.00765547 214.15900943 349.66896297 219.41159243 353.28344727 224.73071289 C358.3485466 232.16574602 363.64663421 239.42847236 368.93212891 246.70751953 C371.81760539 250.6965043 374.66973132 254.70936072 377.51782227 258.72509766 C379.36758182 261.41561434 379.36758182 261.41561434 381.5 263.875 C382.17804688 262.88242187 382.85609375 261.88984375 383.5546875 260.8671875 C386.01709427 257.26783961 388.49309129 253.67802634 390.97314453 250.09082031 C392.40594032 248.01150234 393.82647031 245.92425789 395.24609375 243.8359375 C396.10088026 242.59848679 396.95631787 241.36148551 397.8125 240.125 C398.19583496 239.55378418 398.57916992 238.98256836 398.97412109 238.39404297 C402.29277937 233.65005439 406.00216757 230.70761081 411.5 228.875 C417.43290775 228.29334238 421.6931929 229.45798712 426.5 232.875 C430.86327853 238.3570679 431.66060729 242.61567369 431.60839844 249.42529297 C431.60336618 250.60552442 431.60336618 250.60552442 431.59823227 251.80959892 C431.51617219 263.23368592 431.13208948 274.65256073 430.765625 286.0703125 C430.72648735 287.29049953 430.6873497 288.51068657 430.64702606 289.76784897 C430.43920802 296.20280152 430.22652627 302.63757565 430.01074219 309.07226562 C429.83397416 314.3750608 429.6678395 319.67803155 429.51074219 324.98144531 C429.31970574 331.4283445 429.11049909 337.87441282 428.888237 344.32030869 C428.80698041 346.76406599 428.73205861 349.20804276 428.66370392 351.65219498 C428.56700764 355.06210378 428.44692924 358.47044624 428.32128906 361.87939453 C428.29826721 362.87898697 428.27524536 363.87857941 428.25152588 364.90846252 C427.93990774 372.35591971 426.4534037 378.1325537 420.875 383.3125 C415.31485102 386.97049275 409.26965006 386.61805043 402.82901001 385.34851074 C400.07249029 384.59189107 397.36147007 383.74768784 394.64453125 382.859375 C393.61203751 382.53609222 392.57954376 382.21280945 391.51576233 381.87973022 C388.10982369 380.80955235 384.71133687 379.71750232 381.3125 378.625 C378.9166442 377.86685319 376.52031186 377.11021091 374.12353516 376.35498047 C370.31568492 375.15392502 366.50828535 373.95156575 362.70343018 372.74105835 C353.4978917 369.81294671 344.27736192 366.93623712 335.0470562 364.08720398 C330.64238999 362.72715803 326.23899687 361.36299466 321.83546925 359.99926758 C318.25547216 358.8907808 314.67499712 357.78389537 311.09341431 356.68054199 C307.70974197 355.6377122 304.32818348 354.58828009 300.94805717 353.53401566 C299.10659157 352.96145097 297.26304588 352.39558966 295.41944885 351.82992554 C294.31407272 351.48402374 293.20869659 351.13812195 292.06982422 350.78173828 C290.62988602 350.33569748 290.62988602 350.33569748 289.16085815 349.88064575 C283.34254555 347.68167045 280.15261133 344.74514843 276.5 339.875 C274.83973539 334.89420617 274.90096575 330.57226371 276.625 325.6875 C280.99710879 319.12933682 286.19205441 316.89691202 293.5 314.8125 C294.33144531 314.5635498 295.16289062 314.31459961 296.01953125 314.05810547 C298.50921438 313.3166503 301.00411159 312.5952392 303.5 311.875 C304.91704612 311.45309528 306.33374129 311.03000916 307.75 310.60546875 C317.01236749 307.875 317.01236749 307.875 320.5 307.875 C317.53206737 302.43854648 314.1679459 297.48543005 310.5 292.5 C309.3325356 290.89901891 308.16588732 289.29744243 307 287.6953125 C306.41347656 286.8899707 305.82695312 286.08462891 305.22265625 285.25488281 C302.61467007 281.65189964 300.05579133 278.0151052 297.5 274.375 C293.42005758 268.5707882 289.2913206 262.8049949 285.125 257.0625 C279.91302352 249.87572188 274.80691995 242.61996919 269.73095703 235.33666992 C265.3544804 229.06784311 260.89691019 222.86245956 256.40332031 216.67724609 C252.28602649 210.99688237 248.25803703 205.25784259 244.25 199.5 C239.14807179 192.17292737 233.93980019 184.95537485 228.5 177.875 C228.04898926 178.20072998 227.59797852 178.52645996 227.13330078 178.86206055 C226.17399658 179.55489136 226.17399658 179.55489136 225.1953125 180.26171875 C224.47609619 180.78121094 223.75687988 181.30070313 223.01586914 181.8359375 C221.39809014 183.00421414 219.78008231 184.17217398 218.16186523 185.33984375 C214.0909245 188.27798391 210.02289147 191.21985328 205.96484375 194.17578125 C198.34584321 199.71702599 190.6747256 205.15305186 182.875 210.4375 C176.21892685 214.94745611 169.74087169 219.63096859 163.34277344 224.49853516 C158.22059534 228.37916684 152.97443014 232.03992474 147.6574707 235.64746094 C141.60905998 239.76319517 135.68661279 244.04347082 129.78955078 248.37280273 C115.57467624 258.74683054 115.57467624 258.74683054 107.5 258.875 C100.57630563 257.58414173 96.6088096 254.66166621 92.625 248.9609375 C91.57635811 247.39527439 90.53508021 245.82466179 89.5 244.25 C88.3470575 242.52990412 87.19205627 240.81118664 86.03515625 239.09375 C85.15561279 237.78664063 85.15561279 237.78664063 84.25830078 236.453125 C81.56013239 232.49691031 78.75651917 228.62062554 75.9375 224.75 C71.74765055 218.98832978 67.596006 213.20380195 63.5 207.375 C59.41980288 201.57096487 55.29132345 195.80499882 51.125 190.0625 C45.91302352 182.87572188 40.80691995 175.61996919 35.73095703 168.33666992 C31.87296962 162.81052254 27.96000109 157.32843215 24 151.875 C18.82746954 144.75175854 13.76374659 137.55808009 8.73046875 130.3359375 C4.87261559 124.8100547 0.9598286 119.32819462 -3 113.875 C-8.17192567 106.75259141 -13.23591432 99.56033144 -18.26733398 92.33813477 C-22.14185152 86.78675571 -26.08140108 81.28779029 -30.0625 75.8125 C-31.65878226 73.60360242 -33.25202101 71.39257069 -34.84277344 69.1796875 C-35.99195887 67.58152744 -37.14384052 65.98530403 -38.29785156 64.390625 C-40.11005618 61.87533514 -41.90084403 59.34598165 -43.6875 56.8125 C-44.24058838 56.05122803 -44.79367676 55.28995605 -45.36352539 54.50561523 C-49.32856779 48.8217858 -51.80755676 43.32788701 -51.3203125 36.2734375 C-48.03876983 26.72377963 -39.25967305 21.81050187 -31.1875 16.4375 C-24.93447631 12.23149268 -18.79120864 7.96920568 -12.82421875 3.36328125 C-8.75587417 0.75817321 -4.82519696 -0.54196053 0 0 Z " fill="#E53834" transform="translate(65.5,61.125)"/>
</svg>
