<?xml version="1.0" encoding="UTF-8"?>
<svg version="1.1" xmlns="http://www.w3.org/2000/svg" width="512" height="512">
<path d="M0 0 C4.92153279 3.99210664 7.29301231 7.38131147 7.97639847 13.87342072 C8.14019643 16.69646787 8.24379225 19.51623982 8.32861328 22.34277344 C8.36791962 23.4168898 8.40722595 24.49100616 8.44772339 25.59767151 C8.57536129 29.14690068 8.69019436 32.69641814 8.8046875 36.24609375 C8.89082044 38.72790896 8.97765386 41.20969994 9.06515503 43.69146729 C9.27023219 49.56636774 9.4669165 55.44150512 9.65994346 61.31681275 C9.85650046 67.28036035 10.0642964 73.24349441 10.27339363 79.20661545 C10.45287963 84.33881412 10.62881487 89.47112941 10.80352402 94.60349274 C10.88665343 97.04479244 10.97037166 99.48607218 11.05472183 101.92733002 C11.31344513 109.47561463 11.53965603 117.02402474 11.734375 124.57421875 C11.76135216 125.49088821 11.78832932 126.40755768 11.81612396 127.352005 C11.8850675 129.84828724 11.93264923 132.34392174 11.97216797 134.84082031 C12.00533458 135.90239161 12.00533458 135.90239161 12.03917122 136.98540878 C12.08969743 143.08935672 10.23751973 146.88318093 6.234375 151.38671875 C2.73254917 154.45081635 -0.00284359 154.76696617 -4.515625 154.88671875 C-5.42828125 154.92410156 -6.3409375 154.96148437 -7.28125 155 C-12.35050645 154.27676839 -15.73141484 152.36007524 -19.02050781 148.53149414 C-20.84698107 146.04960624 -22.56860692 143.52126178 -24.265625 140.94921875 C-25.131875 139.67111328 -25.131875 139.67111328 -26.015625 138.3671875 C-27.17836975 136.65161992 -28.33596762 134.93255223 -29.48828125 133.20996094 C-32.35587846 128.95740881 -35.31016439 124.76598716 -38.265625 120.57421875 C-46.31586219 130.5275853 -53.86254962 140.85387379 -61.05566406 151.43969727 C-64.47828444 156.4647705 -68.00328163 161.40646183 -71.578125 166.32421875 C-76.20790176 172.69524359 -80.76343073 179.11240717 -85.265625 185.57421875 C-90.22991647 192.69758302 -95.26951482 199.7596242 -100.37109375 206.78515625 C-104.3960946 212.34024217 -108.34334881 217.94622863 -112.265625 223.57421875 C-117.23001487 230.69751547 -122.2695135 237.75962237 -127.37109375 244.78515625 C-131.39609659 250.34024492 -135.34321523 255.94631921 -139.265625 261.57421875 C-143.88169993 268.19470972 -148.53936839 274.78185428 -153.265625 281.32421875 C-153.78125 282.03835938 -154.296875 282.7525 -154.828125 283.48828125 C-167.42639986 300.8765252 -167.42639986 300.8765252 -172.5546875 302.13671875 C-182.29738367 303.54955686 -188.49392995 299.01868424 -196.203125 293.63671875 C-197.03432861 293.06260254 -197.86553223 292.48848633 -198.72192383 291.89697266 C-204.72843114 287.71997768 -210.59770489 283.3815775 -216.42016602 278.953125 C-221.55079058 275.06502861 -226.80758617 271.40014546 -232.13232422 267.78417969 C-237.18194001 264.34588269 -242.14032499 260.79590113 -247.078125 257.19921875 C-253.27437241 252.68786886 -259.5434671 248.30793959 -265.890625 244.01171875 C-272.78107758 239.34689013 -279.50157998 234.50781968 -286.10400391 229.44311523 C-291.65386145 224.66282493 -291.65386145 224.66282493 -298.265625 222.57421875 C-299.95493624 224.83278788 -301.52659986 227.09790178 -303.078125 229.44921875 C-304.0748479 230.93101789 -305.07362457 232.41143721 -306.07421875 233.890625 C-306.59741699 234.66422363 -307.12061523 235.43782227 -307.65966797 236.23486328 C-310.24771695 240.00480632 -312.94454342 243.69365715 -315.640625 247.38671875 C-320.15269537 253.58243748 -324.53167581 259.85224998 -328.828125 266.19921875 C-333.33777728 272.85548716 -338.02160582 279.33336314 -342.88916016 285.73144531 C-346.77584271 290.86161016 -350.44037487 296.11717623 -354.05566406 301.44091797 C-357.49396106 306.49053376 -361.04394262 311.44891874 -364.640625 316.38671875 C-369.15198089 322.58297439 -373.53165769 328.85222321 -377.828125 335.19921875 C-382.33210345 341.84711255 -386.99999594 348.32559 -391.87597656 354.70507812 C-395.93318543 360.04110199 -399.71833239 365.53814319 -403.35009766 371.17260742 C-406.70938801 376.22995002 -410.75550876 380.81916063 -416.265625 383.57421875 C-423.95480034 384.76760046 -428.84497648 383.33001327 -435.12109375 378.89453125 C-436.15878906 378.12882812 -437.19648438 377.363125 -438.265625 376.57421875 C-439.61323416 375.63031802 -440.96369062 374.69047417 -442.31640625 373.75390625 C-445.9734731 371.21491568 -449.60297934 368.64019038 -453.21923828 366.04345703 C-454.52791613 365.10386943 -455.83860203 364.16706836 -457.15185547 363.23388672 C-458.82198788 362.04489282 -460.48165178 360.84123385 -462.140625 359.63671875 C-463.06617188 358.96769531 -463.99171875 358.29867188 -464.9453125 357.609375 C-469.10721071 353.95895586 -470.83046354 350.19870798 -471.32983398 344.66503906 C-471.11705118 337.73624828 -466.78081936 331.98814684 -462.828125 326.63671875 C-461.74452033 325.13691475 -460.66119473 323.6369091 -459.578125 322.13671875 C-459.02640625 321.37875 -458.4746875 320.62078125 -457.90625 319.83984375 C-455.3420954 316.29886835 -452.8386532 312.71579652 -450.328125 309.13671875 C-446.22600113 303.31292257 -442.07281006 297.52822728 -437.890625 291.76171875 C-432.67878817 284.57483717 -427.57254709 277.319191 -422.49658203 270.03588867 C-418.11707749 263.76272471 -413.65540154 257.5538137 -409.16015625 251.36328125 C-404.5304235 244.97357745 -400.00867094 238.51163971 -395.49829102 232.03735352 C-391.62380299 226.48601675 -387.68614183 220.98558545 -383.703125 215.51171875 C-379.25530943 209.39841564 -374.94216957 203.20893142 -370.703125 196.94921875 C-366.19333666 190.29303886 -361.50964938 183.8150812 -356.64208984 177.41699219 C-352.76116166 172.29442273 -349.10279149 167.04622208 -345.4909668 161.73168945 C-341.89385162 156.45208395 -338.19678876 151.25084082 -334.453125 146.07421875 C-333.925979 145.34477051 -333.39883301 144.61532227 -332.85571289 143.86376953 C-331.33191613 141.76262766 -329.79940368 139.668081 -328.265625 137.57421875 C-327.73638428 136.84138672 -327.20714355 136.10855469 -326.66186523 135.35351562 C-326.14180908 134.64259766 -325.62175293 133.93167969 -325.0859375 133.19921875 C-324.6233252 132.56242188 -324.16071289 131.925625 -323.68408203 131.26953125 C-320.80198014 127.82489862 -317.61566989 126.02697969 -313.13671875 125.1640625 C-303.63013651 124.51926823 -296.02445416 131.256185 -288.765625 136.63671875 C-287.18289858 137.79510053 -285.59955049 138.95263332 -284.015625 140.109375 C-283.22285156 140.68961426 -282.43007813 141.26985352 -281.61328125 141.86767578 C-278.02504214 144.47601515 -274.39683639 147.02621618 -270.765625 149.57421875 C-264.96128634 153.65397779 -259.19561694 157.7829003 -253.453125 161.94921875 C-247.10144046 166.55557084 -240.70243276 171.08763894 -234.265625 175.57421875 C-227.76756385 180.10395102 -221.30673688 184.67908855 -214.890625 189.32421875 C-214.15642334 189.85418457 -213.42222168 190.38415039 -212.66577148 190.93017578 C-209.13886195 193.47916769 -205.62652298 196.04494055 -202.13671875 198.64453125 C-201.49202637 199.11922852 -200.84733398 199.59392578 -200.18310547 200.08300781 C-198.97920754 200.9696902 -197.78119883 201.8644462 -196.59033203 202.76855469 C-194.84513455 204.08377173 -194.84513455 204.08377173 -192.265625 205.57421875 C-188.07590449 204.17764525 -186.71335882 201.17911685 -184.390625 197.63671875 C-183.40306058 196.16400874 -182.41339616 194.69270524 -181.421875 193.22265625 C-180.90496094 192.4553418 -180.38804687 191.68802734 -179.85546875 190.89746094 C-177.27714541 187.12975134 -174.58299906 183.44835012 -171.890625 179.76171875 C-167.37843722 173.56608886 -162.99957105 167.29618289 -158.703125 160.94921875 C-154.19347272 154.29295034 -149.50964418 147.81507436 -144.64208984 141.41699219 C-140.75477722 136.28599569 -137.09053627 131.02902824 -133.47338867 125.70532227 C-130.05131151 120.68152542 -126.52723312 115.74083344 -122.953125 110.82421875 C-117.49649555 103.31713464 -112.14904466 95.7386633 -106.84643555 88.12207031 C-106.01366089 86.92662598 -106.01366089 86.92662598 -105.1640625 85.70703125 C-104.67599121 85.00465332 -104.18791992 84.30227539 -103.68505859 83.57861328 C-102.24759096 81.54875273 -100.76708502 79.55707987 -99.265625 77.57421875 C-102.07739868 76.67605614 -104.89001579 75.78068214 -107.703125 74.88671875 C-108.98255981 74.47788452 -108.98255981 74.47788452 -110.2878418 74.06079102 C-114.54107162 72.71143902 -118.79487513 71.40701054 -123.1015625 70.23828125 C-123.85638916 70.03033936 -124.61121582 69.82239746 -125.38891602 69.6081543 C-126.8077938 69.2215904 -128.2300825 68.84725479 -129.65600586 68.48754883 C-135.73948454 66.81555203 -139.6268555 64.032373 -143.140625 58.76171875 C-145.12411584 53.14182804 -145.02780619 48.69787347 -142.640625 43.32421875 C-140.43214449 38.75625052 -136.48168097 36.44756482 -131.90002441 34.64193726 C-128.99506704 33.65986548 -126.07640757 32.74231489 -123.14453125 31.84375 C-122.03614395 31.49568298 -120.92775665 31.14761597 -119.78578186 30.78900146 C-116.13607991 29.64554596 -112.48224088 28.51598139 -108.828125 27.38671875 C-106.28605715 26.59376944 -103.74421957 25.80011436 -101.20263672 25.00561523 C-95.2380702 23.14308165 -89.27028827 21.29108251 -83.30106735 19.44352627 C-78.65672619 18.00584185 -74.01370496 16.5639708 -69.37158203 15.11914062 C-61.87926795 12.78734797 -54.38550418 10.46025551 -46.890625 8.13671875 C-45.72258331 7.77446198 -44.55454163 7.4122052 -43.35110474 7.03897095 C-40.02381431 6.00813332 -36.69566949 4.98010782 -33.3671875 3.953125 C-31.91905418 3.50425934 -31.91905418 3.50425934 -30.44166565 3.04632568 C-25.76317757 1.60623839 -21.07409812 0.20677864 -16.36474609 -1.12915039 C-15.06517471 -1.49889732 -15.06517471 -1.49889732 -13.73934937 -1.87611389 C-8.62963998 -3.01150331 -4.47799363 -2.81804772 0 0 Z " fill="#7BB341" transform="translate(485.265625,63.42578125)"/>
</svg>
