<?xml version="1.0" encoding="UTF-8"?>
<svg version="1.1" viewBox="0 0 1600 1600" width="1280" height="1280" xmlns="http://www.w3.org/2000/svg">
<path transform="translate(1110,325)" d="m0 0c1.65 1.32 3.3 2.64 5 4v2c0.541 0.215 1.08 0.43 1.64 0.652 3.2 1.82 5.58 4.31 8.14 6.91 0.85 0.852 0.85 0.852 1.72 1.72 1.87 1.88 3.73 3.76 5.59 5.64 1.3 1.31 2.6 2.62 3.91 3.92 3.43 3.44 6.86 6.89 10.3 10.3 5.47 5.52 11 11 16.4 16.5 1.91 1.92 3.81 3.84 5.72 5.76 1.18 1.19 2.36 2.37 3.54 3.56 0.524 0.531 1.05 1.06 1.59 1.61 2.51 2.52 5.05 4.87 7.82 7.09 1.3 1.12 1.3 1.12 2.62 2.25v2c0.585 0.26 1.17 0.519 1.77 0.786 2.39 1.3 3.96 2.7 5.88 4.63 0.708 0.707 1.42 1.41 2.15 2.14 1.15 1.16 1.15 1.16 2.32 2.35 1.22 1.22 1.22 1.22 2.47 2.47 2.7 2.7 5.38 5.41 8.07 8.12 1.87 1.88 3.74 3.75 5.61 5.63 4.42 4.43 8.84 8.87 13.3 13.3 8.38 8.43 16.8 16.8 25.2 25.3 2.76 2.77 5.51 5.54 8.27 8.31 1.69 1.69 3.37 3.38 5.06 5.08 0.768 0.775 1.54 1.55 2.33 2.35 0.705 0.707 1.41 1.41 2.14 2.14 0.611 0.615 1.22 1.23 1.85 1.86 1.79 1.75 1.79 1.75 4.67 3.55v2c0.99 0.33 1.98 0.66 3 1 1.73 1.63 3.36 3.28 5 5 1.18 1.19 2.37 2.38 3.56 3.57 1.39 1.39 2.78 2.78 4.16 4.17 7.76 7.77 15.5 15.5 23.3 23.3 4.69 4.7 9.38 9.39 14.1 14.1 4.54 4.55 9.09 9.1 13.6 13.7 1.73 1.73 3.46 3.46 5.18 5.2 2.42 2.42 4.84 4.85 7.26 7.27 1.06 1.07 1.06 1.07 2.15 2.16 3.76 3.75 7.58 7.24 11.7 10.6 2.37 2.19 2.37 2.19 4 4v2c0.588 0.263 1.18 0.526 1.78 0.797 2.32 1.26 3.84 2.58 5.7 4.45 0.67 0.669 1.34 1.34 2.03 2.03 0.724 0.733 1.45 1.47 2.19 2.22 0.771 0.773 1.54 1.55 2.34 2.34 2.55 2.56 5.1 5.12 7.64 7.69 1.77 1.78 3.55 3.56 5.32 5.34 4.2 4.21 8.39 8.42 12.6 12.6 7.94 7.99 15.9 16 23.8 23.9 2.61 2.62 5.21 5.24 7.81 7.86 1.6 1.61 3.21 3.22 4.81 4.83 0.72 0.727 1.44 1.45 2.18 2.2 2.99 3 5.97 5.89 9.28 8.54 0.826 0.704 1.65 1.41 2.5 2.13v2c0.99 0.33 1.98 0.66 3 1v2c0.584 0.259 1.17 0.518 1.77 0.785 2.4 1.31 3.98 2.72 5.9 4.66 1.07 1.07 1.07 1.07 2.16 2.16 0.773 0.781 1.55 1.56 2.34 2.37 0.822 0.823 1.64 1.65 2.49 2.49 2.72 2.72 5.43 5.46 8.14 8.19 1.89 1.89 3.78 3.79 5.66 5.68 4.47 4.48 8.93 8.96 13.4 13.4 7.98 8.03 16 16 24 24.1 3.25 3.26 6.5 6.53 9.75 9.8 1.71 1.71 3.41 3.42 5.12 5.14 0.771 0.777 1.54 1.55 2.34 2.36 2.91 2.92 5.75 5.7 8.99 8.26 0.654 0.532 1.31 1.06 1.98 1.61v2c0.582 0.257 1.16 0.514 1.77 0.779 2.44 1.33 4.04 2.79 5.99 4.75 1.08 1.08 1.08 1.08 2.18 2.18 1.15 1.17 1.15 1.17 2.32 2.35 0.793 0.796 1.59 1.59 2.4 2.41 2.53 2.54 5.06 5.09 7.58 7.64 1.72 1.73 3.43 3.45 5.15 5.18 4.21 4.23 8.41 8.46 12.6 12.7-1.77 3.82-3.88 5.9-7.06 8.69-6.18 5.5-12 11.3-17.8 17.2-3.97 4.02-8.05 7.83-12.3 11.5-2.38 2.09-4.6 4.31-6.8 6.58-2.9 2.93-5.8 5.76-8.94 8.44-4.29 3.67-8.21 7.68-12.2 11.7-2.14 2.15-4.38 4.15-6.69 6.12-4.64 4.02-8.92 8.35-13.2 12.7-4.92 5-9.87 9.84-15.2 14.4-2.56 2.25-4.93 4.64-7.31 7.09-3.67 3.72-7.43 7.24-11.4 10.6-3.55 3.18-6.86 6.62-10.2 10-2.16 2.17-4.43 4.19-6.75 6.19-4.26 3.69-8.21 7.63-12.2 11.7-4.56 4.65-9.19 9.1-14.1 13.3-2.75 2.43-5.31 5.02-7.88 7.65-3.83 3.88-7.72 7.56-11.9 11.1-3.37 3.03-6.52 6.28-9.7 9.5-3.32 3.35-6.74 6.49-10.3 9.54-3.29 2.95-6.35 6.13-9.4 9.31-1.19 1.22-2.43 2.39-3.68 3.55h-2c-0.33 0.99-0.66 1.98-1 3-1.43 1.4-1.43 1.4-3.31 2.94-3.76 3.18-7.23 6.56-10.7 10.1-3.2 3.24-6.39 6.43-9.88 9.38-4.59 3.9-8.75 8.22-13 12.5-3.62 3.64-7.3 7.1-11.2 10.4-2.41 2.14-4.66 4.41-6.92 6.7-2.81 2.85-5.63 5.61-8.69 8.19-5.05 4.29-9.6 9.09-14.2 13.8-0.629 0.641-1.26 1.28-1.91 1.94-0.567 0.584-1.13 1.17-1.72 1.77-1.48 1.27-1.48 1.27-3.48 1.27-0.33 0.99-0.66 1.98-1 3-1.46 1.44-1.46 1.44-3.38 3-4.07 3.45-7.81 7.15-11.6 11-3.2 3.23-6.52 6.23-9.98 9.17-2.63 2.36-5.11 4.86-7.59 7.38-3.01 3.05-6.04 6.04-9.31 8.81-3.94 3.36-7.55 7.01-11.2 10.7-4.17 4.21-8.35 8.27-12.9 12.1-3.6 3.23-6.95 6.71-10.3 10.1-3.42 3.44-6.92 6.68-10.6 9.82-3.61 3.24-6.97 6.73-10.4 10.2-3.43 3.46-6.94 6.72-10.7 9.86-3.52 3.16-6.8 6.58-10.1 9.99-1.31 1.34-2.67 2.63-4.03 3.91h-2v2c-1.36 1.34-1.36 1.34-3.31 2.94-4.09 3.47-7.85 7.2-11.6 11-2.59 2.61-5.21 5.11-8 7.48-3.54 3.02-6.8 6.26-10.1 9.56-3.82 3.87-7.7 7.55-11.9 11.1-3.53 3.18-6.82 6.6-10.1 10-1.31 1.34-2.67 2.63-4.04 3.91h-2c-0.33-67.7-0.66-135-1-205-27.2 0.0116-54.4 0.0232-82.4 0.0352-17.2 0.00511-34.4 0.00997-51.5 0.0137-9.02 0.00196-18 0.00398-27.1 0.0061-1.7 3.96e-4 -1.7 3.96e-4 -3.43 7.99e-4 -18.3 0.00436-36.5 0.0122-54.8 0.0214-18.7 0.00934-37.5 0.0149-56.2 0.0169-11.6 0.00138-23.1 0.00573-34.7 0.0138-7.92 0.00527-15.8 0.00689-23.8 0.00558-4.58-6.44e-4 -9.16 3.77e-4 -13.7 0.0057-4.19 0.00483-8.37 0.00513-12.6 0.00169-1.52-4.26e-4 -3.04 8.71e-4 -4.56 0.00398-2.05 0.00396-4.11 0.00127-6.16-0.00184-1.72 5.7e-4 -1.72 5.7e-4 -3.47 0.00115-2.54-0.124-2.54-0.124-3.54-1.12-0.099-2.75-0.132-5.47-0.123-8.21-0.00115-0.876-0.00231-1.75-0.0035-2.65-0.00267-2.97 0.00186-5.95 0.00629-8.92-4.36e-4 -2.14-0.00131-4.28-0.00259-6.41-0.00225-5.9 0.00178-11.8 0.00678-17.7 0.0043-6.36 0.00286-12.7 0.0021-19.1-5.26e-4 -11 0.00259-22 0.00824-33.1 0.00591-11.6 0.00976-23.1 0.0109-34.7 6.87e-5 -0.718 1.37e-4 -1.44 2.08e-4 -2.18 3.38e-4 -3.65 6.4e-4 -7.29 9.27e-4 -10.9 0.0021-25.8 0.00884-51.7 0.0183-77.5 0.00918-25.1 0.0162-50.2 0.0205-75.4 2.71e-4 -1.58 5.41e-4 -3.16 8.12e-4 -4.74 0.00219-12.8 0.00423-25.7 0.00624-38.5 0.00939-59.3 0.0295-119 0.0479-178h379v-225zm94 226v92c-11.4-0.00524-22.9-0.0105-34.7-0.0159-36.6-0.016-73.2-0.0272-110-0.0352-5.68-0.00125-11.4-0.00255-17-0.00387-1.7-3.93e-4 -1.7-3.93e-4 -3.42-7.95e-4 -18.3-0.00436-36.7-0.0122-55-0.0214-18.8-0.00934-37.6-0.0149-56.4-0.0169-11.6-0.00138-23.2-0.00573-34.8-0.0138-7.95-0.00527-15.9-0.00689-23.8-0.00558-4.59 6.44e-4 -9.18-3.77e-4 -13.8-0.0057-4.2-0.00483-8.39-0.00513-12.6-0.00169-1.52 4.26e-4 -3.05-8.71e-4 -4.57-0.00398-2.06-0.00396-4.12-0.00127-6.18 0.00184-1.72-5.7e-4 -1.72-5.7e-4 -3.48-0.00115-2.48-0.165-2.48-0.165-3.55 1.12-0.0974 1.76-0.124 3.53-0.123 5.29-0.00199 1.16-0.00398 2.31-0.00603 3.5 0.00291 1.28 0.00583 2.57 0.00883 3.89-4.37e-4 1.36-0.00131 2.73-0.00259 4.09-0.00225 3.77 0.00179 7.54 0.00678 11.3 0.00435 4.12 0.00291 8.24 0.00218 12.4-5.33e-4 8.01 0.0041 16 0.0105 24 0.00718 9.25 0.00799 18.5 0.00878 27.8 0.00526 24.4 0.0192 48.9 0.0321 73.3l0.0625 165h379v80c4.45-2.63 4.45-2.63 8.05-5.89 0.529-0.541 1.06-1.08 1.6-1.64 0.547-0.568 1.09-1.14 1.66-1.72 6.98-7.12 6.98-7.12 10.7-10.2 3.7-3.14 7.09-6.55 10.5-10 3.39-3.43 6.75-6.82 10.4-9.94 3.91-3.31 7.47-6.93 11.1-10.6 4.17-4.21 8.35-8.27 12.9-12.1 3.6-3.23 6.95-6.71 10.3-10.1 3.42-3.44 6.92-6.68 10.6-9.82 3.61-3.24 6.97-6.73 10.4-10.2 3.44-3.46 6.97-6.73 10.7-9.89 2.81-2.51 5.44-5.19 8.09-7.87 3.18-3.22 6.35-6.39 9.81-9.31 4.12-3.5 7.88-7.35 11.7-11.2 4.34-4.39 8.69-8.65 13.4-12.6 3.59-3.21 6.92-6.68 10.3-10.1 3.46-3.48 6.99-6.77 10.7-9.94 3.71-3.31 7.15-6.91 10.6-10.5 2.42-2.36 2.42-2.36 5.42-4.36v-2c0.59-0.263 1.18-0.527 1.79-0.798 2.31-1.25 3.78-2.55 5.6-4.43 0.623-0.634 1.25-1.27 1.89-1.92 0.651-0.671 1.3-1.34 1.97-2.03 4.44-4.52 8.88-8.92 13.7-13 3.35-2.98 6.45-6.21 9.6-9.4 2.68-2.7 5.38-5.31 8.29-7.77 4.58-3.89 8.74-8.21 13-12.5 3.77-3.8 7.61-7.45 11.7-10.9 1.59-1.31 1.59-1.31 3.45-3.23-0.108-4.3-3.41-6.8-6.29-9.61-0.802-0.799-0.802-0.799-1.62-1.61-1.13-1.13-2.27-2.25-3.41-3.37-1.72-1.69-3.43-3.39-5.14-5.09-1.11-1.1-2.22-2.2-3.33-3.29-0.502-0.498-1-0.996-1.52-1.51-2.73-2.68-5.52-5.24-8.42-7.73-4.1-3.57-7.96-7.33-11.8-11.2-0.704-0.705-1.41-1.41-2.13-2.14-1.51-1.52-3.02-3.03-4.54-4.55-2.39-2.41-4.79-4.81-7.19-7.21-5.09-5.1-10.2-10.2-15.3-15.3-5.9-5.92-11.8-11.8-17.7-17.8-2.36-2.36-4.71-4.73-7.06-7.09-1.45-1.45-2.9-2.91-4.35-4.36-0.648-0.654-1.3-1.31-1.97-1.98-2.72-2.72-5.45-5.37-8.43-7.81-2.81-2.32-5.31-4.76-7.86-7.37-1.3-1.3-2.59-2.6-3.89-3.9-1.54-1.55-3.09-3.1-4.63-4.65-8.6-8.63-17.2-17.3-25.8-25.9-5.21-5.22-10.4-10.4-15.6-15.7-4.55-4.57-9.1-9.13-13.7-13.7-2.41-2.41-4.82-4.83-7.22-7.24-2.67-2.69-5.35-5.37-8.04-8.05-1.2-1.21-1.2-1.21-2.42-2.44-1.09-1.09-1.09-1.09-2.2-2.2-0.633-0.635-1.27-1.27-1.92-1.92-1.5-1.56-1.5-1.56-3.59-1.34-0.33-0.99-0.66-1.98-1-3h-2c-0.66-1.32-1.32-2.64-2-4h-2c-0.33-0.99-0.66-1.98-1-3-1.66-1.34-3.33-2.67-5-4-1.2-1.46-2.4-2.93-3.59-4.4-1.48-1.68-3.05-3.05-4.77-4.49-3.78-3.26-7.31-6.72-10.8-10.3-0.543-0.549-1.09-1.1-1.65-1.66-2.26-2.29-4.53-4.59-6.78-6.89-1.67-1.7-3.34-3.39-5.01-5.07-0.511-0.525-1.02-1.05-1.55-1.59-1.24-1.25-2.53-2.45-3.83-3.63h-2z" fill="#000002"/>
<path transform="translate(0,758)" d="m0 0c55.7-0.022 111-0.0405 167-0.0511 6.56-0.00125 13.1-0.00255 19.7-0.00387 1.31-2.62e-4 2.61-5.25e-4 3.96-7.95e-4 21.2-0.00436 42.4-0.0122 63.6-0.0214 21.7-0.00933 43.4-0.0149 65.2-0.0169 13.4-0.00138 26.8-0.00573 40.2-0.0138 9.19-0.00527 18.4-0.00689 27.6-0.00558 5.31 6.44e-4 10.6-3.77e-4 15.9-0.0057 4.85-0.00483 9.7-0.00513 14.6-0.00169 1.76 4.26e-4 3.53-8.71e-4 5.29-0.00398 2.38-0.00396 4.76-0.00188 7.14 0.00184 1.05-0.00394 1.05-0.00394 2.12-0.00796 4.72 0.0169 4.72 0.0169 5.83 1.13v92h-438v-93z" fill="#000002"/>
<path transform="translate(298,975)" d="m0 0h296v93c-33.9 0.842-67.9 1.15-102 1.13-4.05-0.00153-8.1-0.00143-12.2-5.1e-4 -1.02 2.3e-4 -1.02 2.3e-4 -2.07 4.64e-4 -1.39 3.2e-4 -2.77 6.44e-4 -4.16 9.73e-4 -12.8 0.00281-25.6-3.67e-4 -38.4-0.0058-11-0.00451-22-0.00365-32.9 9.19e-4 -12.8 0.00534-25.7 0.00747-38.5 0.00439-1.37-3.18e-4 -2.73-6.33e-4 -4.1-9.43e-4 -0.671-1.54e-4 -1.34-3.09e-4 -2.03-4.68e-4 -4.72-8.62e-4 -9.45 5.91e-4 -14.2 0.00295-6.32 0.00287-12.6 9.14e-4 -19-0.00489-2.32-0.00133-4.64-9.33e-4 -6.97 0.00126-3.15 0.00271-6.3-6.64e-4 -9.46-0.00568-0.93 0.00223-1.86 0.00446-2.82 0.00676-6.29-0.0196-6.29-0.0196-7.4-1.13v-93z" fill="#000002"/>
<path transform="translate(298,541)" d="m0 0h296v93c-37.6 0.149-75.1 0.295-113 0.433-4.43 0.0163-8.86 0.0326-13.3 0.0489-0.882 0.00325-1.76 0.00651-2.67 0.00986-14.3 0.0528-28.6 0.109-42.9 0.167-14.7 0.0591-29.3 0.114-44 0.166-9.05 0.0321-18.1 0.0671-27.2 0.106-6.2 0.0263-12.4 0.0489-18.6 0.0687-3.58 0.0115-7.17 0.0247-10.7 0.0422-3.88 0.0189-7.75 0.0301-11.6 0.0405-1.14 0.0068-2.29 0.0136-3.47 0.0206-1.54 0.00224-1.54 0.00224-3.12 0.00452-0.896 0.00342-1.79 0.00683-2.71 0.0104-2.02-0.118-2.02-0.118-3.02-1.12v-93z" fill="#000002"/>
<path transform="translate(108,975)" d="m0 0h94v93c-49 1.17-49 1.17-66.9 1.13-3.31-0.00563-6.62 1.53e-4 -9.93 0.00635-2.13-6.57e-4 -4.26-0.00193-6.39-0.00391-0.979 0.00202-1.96 0.00405-2.97 0.00613-0.885-0.00315-1.77-0.0063-2.68-0.00955-0.777-7.96e-4 -1.55-0.00159-2.35-0.00241-1.77-0.127-1.77-0.127-2.77-1.13-0.0952-2.89-0.126-5.76-0.114-8.65-1.21e-4 -0.922-2.41e-4 -1.84-3.65e-4 -2.79 7.49e-4 -3 0.00838-6 0.0162-9 0.00147-1.85 0.00249-3.69 0.00305-5.54 0.00525-6.86 0.0192-13.7 0.0321-20.6 0.0206-15.3 0.0413-30.6 0.0625-46.4z" fill="#000002"/>
<path transform="translate(109,541)" d="m0 0h93v93c-15.6 0.247-15.6 0.247-31.4 0.5-3.22 0.0522-6.44 0.104-9.75 0.158-13.1 0.207-26.2 0.393-39.3 0.436-1.03 0.00649-2.07 0.013-3.13 0.0197-0.94 6.04e-4 -1.88 0.00121-2.85 0.00183-0.812 0.00205-1.62 0.00411-2.46 0.00623-2.09-0.121-2.09-0.121-5.09-1.12-0.0232-11.2-0.0409-22.5-0.0518-33.7-0.00522-5.22-0.0123-10.4-0.0236-15.7-0.0109-5.04-0.0168-10.1-0.0194-15.1-0.00185-1.92-0.00545-3.84-0.0109-5.76-0.00727-2.69-0.00826-5.39-0.0078-8.08-0.0036-0.792-0.00719-1.58-0.0109-2.4 0.00137-0.74 0.00275-1.48 0.00417-2.24-9.22e-4 -0.636-0.00184-1.27-0.00279-1.93 0.16-2.72 0.675-5.41 1.12-8.1z" fill="#000002"/>
</svg>
