<svg width="16" height="14" viewBox="0 0 16 14" fill="none" xmlns="http://www.w3.org/2000/svg">
<path d="M9.14287 1.5C9.14287 0.946875 8.63216 0.5 8.00001 0.5C7.36787 0.5 6.85716 0.946875 6.85716 1.5V6H1.7143C1.08216 6 0.571442 6.44688 0.571442 7C0.571442 7.55312 1.08216 8 1.7143 8H6.85716V12.5C6.85716 13.0531 7.36787 13.5 8.00001 13.5C8.63216 13.5 9.14287 13.0531 9.14287 12.5V8H14.2857C14.9179 8 15.4286 7.55312 15.4286 7C15.4286 6.44688 14.9179 6 14.2857 6H9.14287V1.5Z" fill="#44546F"/>
</svg>
