<svg width="16" height="16" viewBox="0 0 16 16" fill="none" xmlns="http://www.w3.org/2000/svg">
<g clip-path="url(#clip0_199_4853)">
<path d="M11.6484 7.925H8.37344V4.225C8.37344 3.925 8.12344 3.675 7.82344 3.675C7.52344 3.675 7.27344 3.925 7.27344 4.225V8.5C7.27344 8.8 7.52344 9.05 7.82344 9.05H11.6484C11.9484 9.05 12.1984 8.8 12.1984 8.5C12.1984 8.2 11.9734 7.925 11.6484 7.925Z" fill="#44546F"/>
<path d="M7.99922 0.350006C3.82422 0.350006 0.449219 3.77501 0.449219 8.00001C0.449219 12.225 3.82422 15.65 7.99922 15.65C12.1742 15.65 15.5492 12.225 15.5492 8.00001C15.5492 3.77501 12.1742 0.350006 7.99922 0.350006ZM7.99922 14.525C4.44922 14.525 1.54922 11.6 1.54922 8.00001C1.54922 4.40001 4.44922 1.47501 7.99922 1.47501C11.5492 1.47501 14.4492 4.40001 14.4492 8.00001C14.4492 11.6 11.5492 14.525 7.99922 14.525Z" fill="#44546F"/>
</g>
<defs>
<clipPath id="clip0_199_4853">
<rect width="16" height="16" fill="white"/>
</clipPath>
</defs>
</svg>
