<svg width="48" height="41" viewBox="0 0 48 41" fill="none" xmlns="http://www.w3.org/2000/svg">
<g clip-path="url(#clip0_199_4974)">
<path fill-rule="evenodd" clip-rule="evenodd" d="M30.2142 25.5391C30.2142 25.5391 28.8968 29.1259 29.2297 30.4988C29.5055 31.6324 30.6554 32.3291 31.7952 32.0518C32.938 31.7736 33.6365 30.6257 33.3618 29.4922C33.0289 28.1203 30.2142 25.5391 30.2142 25.5391Z" fill="#38A1E8"/>
<path fill-rule="evenodd" clip-rule="evenodd" d="M38.3998 25.3871C38.3998 25.3871 37.0823 28.9739 37.4153 30.3458C37.691 31.4804 38.841 32.1771 39.9807 31.8999C41.1235 31.6216 41.8221 30.4737 41.5473 29.3402C41.2144 27.9683 38.3998 25.3871 38.3998 25.3871Z" fill="#38A1E8"/>
<path fill-rule="evenodd" clip-rule="evenodd" d="M6.90563 25.9988C6.90563 25.9988 5.58818 29.5856 5.92112 30.9575C6.19686 32.092 7.34682 32.7887 8.48656 32.5115C9.62937 32.2332 10.3279 31.0854 10.0532 29.9518C9.72027 28.5799 6.90563 25.9988 6.90563 25.9988Z" fill="#38A1E8"/>
<path fill-rule="evenodd" clip-rule="evenodd" d="M12.579 33.7996C12.579 33.7996 11.2554 37.3629 11.5863 38.7235C11.859 39.8489 13.0069 40.5384 14.1477 40.2612C15.2905 39.9829 15.9911 38.8432 15.7174 37.7179C15.3875 36.3562 12.579 33.7996 12.579 33.7996Z" fill="#38A1E8"/>
<path fill-rule="evenodd" clip-rule="evenodd" d="M27.2098 33.3307C27.2098 33.3307 25.8863 36.894 26.2172 38.2547C26.4898 39.38 27.6378 40.0696 28.7785 39.7923C29.9213 39.514 30.6219 38.3744 30.3482 37.249C30.0184 35.8873 27.2098 33.3307 27.2098 33.3307Z" fill="#38A1E8"/>
<path fill-rule="evenodd" clip-rule="evenodd" d="M35.8602 32.931C35.8602 32.931 34.5367 36.4943 34.8676 37.8549C35.1402 38.9803 36.2882 39.6698 37.4289 39.3926C38.5717 39.1143 39.2723 37.9746 38.9986 36.8493C38.6688 35.4876 35.8602 32.931 35.8602 32.931Z" fill="#38A1E8"/>
<path fill-rule="evenodd" clip-rule="evenodd" d="M13.6054 28.2469H20.3387L19.9833 27.2576C19.3409 25.4694 18.7578 23.8489 18.574 23.3414C18.2676 22.4943 18.2553 21.8355 18.5403 21.4386C18.7731 21.1132 19.1428 21.0457 19.2286 21.0457H21.2671C22.5447 21.0457 23.3249 22.3215 23.6037 23.413C23.6905 23.7537 23.7917 24.1455 23.902 24.5742C24.3462 26.297 24.9549 28.6572 25.3777 30.4976C25.6769 31.8 25.3818 32.3453 25.2408 32.5192C25.1101 32.6808 24.9283 32.7586 24.6843 32.7586H17.6773L20.1304 39.7644C20.2437 40.0866 20.2264 40.2647 20.206 40.3209C20.113 40.3342 19.7791 40.2575 19.4778 39.8247C18.0511 37.7735 14.4551 32.469 12.8854 30.0536C12.5055 29.4685 12.385 28.9866 12.5464 28.6961C12.6934 28.4321 13.1285 28.2469 13.6054 28.2469Z" fill="#F9C900"/>
<path fill-rule="evenodd" clip-rule="evenodd" d="M42.2753 12.8896C45.2166 12.8896 47.6094 15.3183 47.6094 18.3056C47.6094 21.2908 45.2166 23.7196 42.2753 23.7196H19.0831C15.3922 23.7196 12.3887 20.6699 12.3887 16.9214C12.3887 13.173 15.3922 10.1233 19.0831 10.1233C19.7705 10.1233 20.4537 10.2307 21.1114 10.4425L21.5414 10.5806L21.6925 10.1499C23.11 6.10373 26.8979 3.3855 31.1179 3.3855C36.2774 3.3855 40.5596 7.3099 41.0794 12.5152L41.1274 12.997L41.6013 12.9377C41.8627 12.9049 42.0772 12.8896 42.2753 12.8896Z" fill="#D6E3F2"/>
<path fill-rule="evenodd" clip-rule="evenodd" d="M5.89277 11.8276C2.64409 11.8276 0 14.5018 0 17.7899C0 21.0759 2.64409 23.7512 5.89277 23.7512H31.5135C35.5925 23.7512 38.9096 20.3936 38.9096 16.2666C38.9096 12.1396 35.5925 8.782 31.5135 8.782C30.7547 8.782 30 8.90067 29.2729 9.1329L28.799 9.28533L28.6315 8.81064C27.0659 4.3563 22.8807 1.36389 18.2186 1.36389C12.5188 1.36389 7.78826 5.68524 7.2143 11.4153L7.16119 11.9463L6.6383 11.8808C6.34826 11.844 6.11132 11.8276 5.89277 11.8276Z" fill="#BAC6D1"/>
</g>
<defs>
<clipPath id="clip0_199_4974">
<rect width="48" height="39.84" fill="white" transform="translate(0 0.942383)"/>
</clipPath>
</defs>
</svg>
