<svg width="22" height="22" viewBox="0 0 22 22" fill="none" xmlns="http://www.w3.org/2000/svg">
<path d="M12.2 11L21.35 1.84998C21.6875 1.51248 21.6875 0.987476 21.35 0.649976C21.0125 0.312476 20.4875 0.312476 20.15 0.649976L11 9.79998L1.84998 0.649976C1.51248 0.312476 0.987476 0.312476 0.649976 0.649976C0.312476 0.987476 0.312476 1.51248 0.649976 1.84998L9.79998 11L0.649976 20.15C0.312476 20.4875 0.312476 21.0125 0.649976 21.35C0.799976 21.5 1.02498 21.6125 1.24998 21.6125C1.47498 21.6125 1.69998 21.5375 1.84998 21.35L11 12.2L20.15 21.35C20.3 21.5 20.525 21.6125 20.75 21.6125C20.975 21.6125 21.2 21.5375 21.35 21.35C21.6875 21.0125 21.6875 20.4875 21.35 20.15L12.2 11Z" fill="#555555"/>
</svg>
