<svg width="17" height="16" viewBox="0 0 17 16" fill="none" xmlns="http://www.w3.org/2000/svg">
<path d="M13.0887 0.450195H3.23867C2.28867 0.450195 1.51367 1.2252 1.51367 2.1752V2.9502C1.51367 3.3752 1.66367 3.7752 1.91367 4.1002L6.01367 9.1752V13.5252C6.01367 14.2502 6.46367 14.9002 7.13867 15.1502L7.96367 15.4502C8.16367 15.5252 8.36367 15.5502 8.56367 15.5502C8.91367 15.5502 9.26367 15.4502 9.56367 15.2502C10.0137 14.9252 10.3137 14.4002 10.3137 13.8252V9.1502L14.4137 4.1002C14.6637 3.7752 14.8137 3.3752 14.8137 2.9502V2.1752C14.8137 1.2252 14.0387 0.450195 13.0887 0.450195ZM2.63867 2.1752C2.63867 1.8502 2.91367 1.5752 3.23867 1.5752H13.0637C13.3887 1.5752 13.6637 1.8502 13.6637 2.1752V2.9502V2.9752H2.63867V2.9502V2.1752ZM9.31367 8.6252C9.23867 8.7252 9.18867 8.8502 9.18867 8.9752V13.8252C9.18867 14.0252 9.08867 14.2002 8.93867 14.3252C8.78867 14.4502 8.56367 14.4752 8.38867 14.4002L7.56367 14.1002C7.31367 14.0252 7.16367 13.7752 7.16367 13.5252V8.9752C7.16367 8.8502 7.11367 8.7252 7.03867 8.6252L3.36367 4.1002H12.9637L9.31367 8.6252Z" fill="#555555"/>
</svg>
