<svg width="16" height="16" viewBox="0 0 16 16" fill="none" xmlns="http://www.w3.org/2000/svg">
<path d="M14.1752 2.175H9.3252L8.9002 1.35C8.6502 0.9 8.2002 0.625 7.6752 0.625H3.9252C3.1752 0.625 2.5502 1.25 2.5502 2V3.2H1.8252C1.0752 3.2 0.450195 3.825 0.450195 4.575V13.95C0.450195 14.7 1.0752 15.325 1.8252 15.325H12.0752C12.8252 15.325 13.4502 14.7 13.4502 13.95V12.75H14.1752C14.9252 12.75 15.5502 12.125 15.5502 11.375V3.575C15.5752 2.8 14.9502 2.175 14.1752 2.175ZM12.3252 13.975C12.3252 14.125 12.2002 14.225 12.0752 14.225H1.8252C1.6752 14.225 1.5752 14.1 1.5752 13.975V4.6C1.5752 4.45 1.7002 4.35 1.8252 4.35H5.5752C5.6752 4.35 5.7502 4.4 5.8002 4.475L6.4002 5.6C6.5002 5.775 6.7002 5.9 6.9002 5.9H12.1002C12.2502 5.9 12.3502 6.025 12.3502 6.15V13.975H12.3252ZM14.4502 11.4C14.4502 11.55 14.3252 11.65 14.2002 11.65H13.4752V6.15C13.4752 5.4 12.8502 4.775 12.1002 4.775H7.2002L6.7752 3.95C6.5252 3.5 6.0752 3.225 5.5502 3.225H3.6752V2.025C3.6752 1.875 3.8002 1.775 3.9252 1.775H7.6752C7.7752 1.775 7.8502 1.825 7.9002 1.9L8.5002 3C8.6002 3.175 8.8002 3.3 9.0002 3.3H14.2002C14.3502 3.3 14.4502 3.425 14.4502 3.55V11.4Z" fill="#111928"/>
</svg>
