<svg width="32" height="32" viewBox="0 0 32 32" fill="none" xmlns="http://www.w3.org/2000/svg">
<path fill-rule="evenodd" clip-rule="evenodd" d="M6 16C6 10.4767 10.4767 6 16 6C21.5233 6 26 10.4767 26 16C26 21.5233 21.5233 26 16 26C10.4767 26 6 21.5233 6 16ZM8 16C8 20.4188 11.5812 24 16 24C20.4188 24 24 20.4188 24 16C24 11.5812 20.4188 8 16 8C11.5812 8 8 11.5812 8 16ZM12 14C12 11.4838 14.3214 9.51108 16.9389 10.1071C18.3829 10.4351 19.5569 11.6051 19.8899 13.0481C20.3809 15.1771 19.1719 17.0911 17.3589 17.7471C17.1549 17.8201 17.0099 18.0021 17.0099 18.2191V18.0001C17.0099 18.5521 16.5629 19.0001 16.0099 19.0001C15.4579 19.0001 15.0099 18.5521 15.0099 18.0001V16.9871C15.0179 16.4411 15.4599 16.0001 15.9999 16.0001C17.1029 16.0001 17.9999 15.1021 17.9999 14.0001C17.9999 12.8971 17.1029 12.0001 15.9999 12.0001C14.8959 12.0001 13.9993 12.9231 14.0004 14.0271C13.9852 14.5666 13.5429 15 13 15C12.4777 15 12.0486 14.599 12.0038 14.0882C12.0038 14.0882 12 14.0297 12 14ZM16 22C15.448 22 15 21.552 15 21C15 20.448 15.448 20 16 20C16.552 20 17 20.448 17 21C17 21.552 16.552 22 16 22Z" fill="#44546F"/>
</svg>
