<svg width="24" height="22" viewBox="0 0 24 22" fill="none" xmlns="http://www.w3.org/2000/svg">
<path d="M1.5002 2.3375H22.5002C22.9502 2.3375 23.3627 1.9625 23.3627 1.475C23.3627 0.987503 22.9877 0.612503 22.5002 0.612503H1.5002C1.0502 0.612503 0.637695 0.987503 0.637695 1.475C0.637695 1.9625 1.0502 2.3375 1.5002 2.3375Z" fill="#555555"/>
<path d="M22.5002 6.9875H1.5002C1.0502 6.9875 0.637695 7.3625 0.637695 7.85C0.637695 8.3375 1.0127 8.7125 1.5002 8.7125H22.5002C22.9502 8.7125 23.3627 8.3375 23.3627 7.85C23.3627 7.3625 22.9502 6.9875 22.5002 6.9875Z" fill="#555555"/>
<path d="M22.5002 13.325H1.5002C1.0502 13.325 0.637695 13.7 0.637695 14.1875C0.637695 14.675 1.0127 15.05 1.5002 15.05H22.5002C22.9502 15.05 23.3627 14.675 23.3627 14.1875C23.3627 13.7 22.9502 13.325 22.5002 13.325Z" fill="#555555"/>
<path d="M15.9377 19.6625H1.5002C1.0502 19.6625 0.637695 20.0375 0.637695 20.525C0.637695 21.0125 1.0127 21.3875 1.5002 21.3875H15.9377C16.3877 21.3875 16.8002 21.0125 16.8002 20.525C16.8002 20.0375 16.3877 19.6625 15.9377 19.6625Z" fill="#555555"/>
</svg>
