<svg width="24" height="24" viewBox="0 0 24 24" fill="none" xmlns="http://www.w3.org/2000/svg">
<path d="M12.3 23.3625C12.225 23.3625 12.1875 23.3625 12.1125 23.3625C10.3875 23.3625 8.5125 22.65 7.35 21.5625C6.1125 20.4 5.4375 18.825 5.4375 17.2125V5.58751C5.4375 3.97501 6.225 2.51251 7.6125 1.57501C8.9625 0.637512 10.65 0.412512 12.225 0.975012L12.3 1.01251C12.4875 1.08751 12.7125 1.12501 12.9375 1.27501C14.6625 2.17501 15.7125 3.78751 15.7125 5.62501V15.5625C15.7125 16.575 15.375 17.5125 14.7375 18.2625C14.625 18.4125 14.55 18.4875 14.475 18.525C13.7625 19.1625 12.9375 19.5 12 19.5C10.95 19.5 9.9375 19.0125 9.2625 18.225C8.625 17.475 8.25 16.5 8.25 15.4875V7.20001C8.25 6.75001 8.625 6.33751 9.1125 6.33751C9.6 6.33751 9.975 6.71251 9.975 7.20001V15.525C9.975 16.125 10.2 16.725 10.575 17.175C10.9125 17.5875 11.475 17.85 12 17.85C12.4875 17.85 12.9 17.6625 13.275 17.325C13.3125 17.2875 13.35 17.25 13.425 17.175C13.8 16.725 14.025 16.1625 14.025 15.5625V5.58751C14.025 4.38751 13.35 3.33751 12.15 2.73751L12.1125 2.70001C12.0375 2.66251 11.9625 2.62501 11.8125 2.58751L11.7 2.55001C10.6125 2.17501 9.4875 2.32501 8.55 2.96251C7.6125 3.56251 7.125 4.50001 7.125 5.55001V17.175C7.125 18.3 7.65 19.4625 8.5125 20.2875C9.375 21.075 10.8375 21.6375 12.15 21.6375C13.425 21.675 14.625 21.1875 15.5625 20.325C16.4625 19.4625 16.95 18.3375 16.9125 17.175V8.13751C16.9125 7.68751 17.2875 7.27501 17.775 7.27501C18.2625 7.27501 18.6375 7.65001 18.6375 8.13751V17.175C18.675 18.7875 18 20.3625 16.7625 21.5625C15.525 22.6875 13.9125 23.3625 12.3 23.3625Z" fill="#555555"/>
</svg>
