<svg width="16" height="16" viewBox="0 0 16 16" fill="none" xmlns="http://www.w3.org/2000/svg">
<path d="M15.5752 10.975C15.5752 9.6 14.5002 8.525 13.1252 8.525C11.7502 8.525 10.6502 9.625 10.6502 10.975C10.6502 11.775 11.4502 13.175 12.0502 14.125H4.6502C4.3002 14.125 3.9502 13.975 3.7002 13.725C3.3752 13.4 3.2502 12.95 3.3502 12.475C3.4752 11.875 4.0502 11.425 4.7252 11.425H7.2002C7.8502 11.425 8.47519 11.175 8.9502 10.7C9.6252 10.025 9.85019 9.05 9.5252 8.125C9.2002 7.15 8.2502 6.475 7.1502 6.475H3.9502C4.5502 5.5 5.3752 4.025 5.3752 3.2C5.3752 1.825 4.3002 0.75 2.9252 0.75C1.5502 0.75 0.450195 1.85 0.450195 3.2C0.450195 4.35 2.1252 6.85 2.4502 7.35C2.4752 7.375 2.5002 7.4 2.5252 7.425L2.5502 7.45C2.5752 7.475 2.6002 7.475 2.6252 7.5L2.6502 7.525C2.6752 7.55 2.7002 7.55 2.7252 7.55H2.7502C2.8002 7.55 2.8252 7.575 2.8752 7.575H7.1252C7.7252 7.575 8.2502 7.925 8.4252 8.45C8.6002 8.975 8.4752 9.5 8.1002 9.875C7.8502 10.125 7.5252 10.275 7.1502 10.275H4.6752C3.4502 10.275 2.4252 11.1 2.2002 12.225C2.0252 13.05 2.2752 13.9 2.8752 14.475C3.3502 14.95 3.9502 15.2 4.6252 15.2H13.0752C13.1252 15.2 13.1502 15.2 13.2002 15.175H13.2252C13.2502 15.175 13.2752 15.15 13.3002 15.15C13.3252 15.15 13.3252 15.125 13.3502 15.125C13.3752 15.1 13.4002 15.1 13.4252 15.075L13.4502 15.05C13.4752 15.025 13.5002 15 13.5002 14.975C13.5002 14.975 13.5252 14.975 13.5252 14.95C13.9002 14.55 15.5752 12.15 15.5752 10.975ZM2.9252 1.875C3.6752 1.875 4.2502 2.45 4.2502 3.2C4.2502 3.675 3.5752 4.95 2.9252 6C2.2502 4.95 1.5752 3.7 1.5752 3.2C1.5752 2.475 2.1752 1.875 2.9252 1.875ZM13.1002 9.65C13.8502 9.65 14.4252 10.225 14.4252 10.975C14.4252 11.45 13.7502 12.675 13.0752 13.675C12.4252 12.675 11.7252 11.45 11.7252 10.975C11.7502 10.25 12.3502 9.65 13.1002 9.65Z" fill="#555555"/>
</svg>
