<svg width="20" height="24" viewBox="0 0 20 24" fill="none" xmlns="http://www.w3.org/2000/svg">
<path d="M1.6374 2.3625H18.8124C19.2624 2.3625 19.6749 1.9875 19.6749 1.5C19.6749 1.0125 19.2999 0.637501 18.8124 0.637501H1.6374C1.1874 0.637501 0.774902 1.0125 0.774902 1.5C0.774902 1.9875 1.1499 2.3625 1.6374 2.3625Z" fill="#555555"/>
<path d="M18.8124 21.675H1.6374C1.1874 21.675 0.774902 22.05 0.774902 22.5375C0.774902 23.025 1.1499 23.4 1.6374 23.4H18.8124C19.2624 23.4 19.6749 23.025 19.6749 22.5375C19.6749 22.05 19.2624 21.675 18.8124 21.675Z" fill="#555555"/>
<path d="M4.5248 16.0875C4.7123 16.2375 4.9748 16.35 5.2373 16.35C5.3873 16.35 5.5373 16.3125 5.6873 16.275C6.0998 16.125 6.3623 15.75 6.3998 15.3375V8.775C6.3998 8.325 6.1373 7.875 5.7248 7.6875C5.3498 7.5 4.8998 7.575 4.5623 7.8375L0.812305 11.025C0.549805 11.25 0.362305 11.5875 0.362305 11.925C0.362305 12.2625 0.512305 12.6 0.774805 12.825L4.5248 16.0875ZM4.7123 9.9375V14.025L2.3123 11.9625L4.7123 9.9375Z" fill="#555555"/>
<path d="M18.8123 5.8875H10.5998C10.1498 5.8875 9.7373 6.2625 9.7373 6.75C9.7373 7.2375 10.1123 7.6125 10.5998 7.6125H18.7748C19.2248 7.6125 19.6373 7.2375 19.6373 6.75C19.6373 6.2625 19.2623 5.8875 18.8123 5.8875Z" fill="#555555"/>
<path d="M18.8123 11.175H10.5998C10.1498 11.175 9.7373 11.55 9.7373 12.0375C9.7373 12.525 10.1123 12.8625 10.5998 12.8625H18.7748C19.2248 12.8625 19.6373 12.4875 19.6373 12.0375C19.6373 11.5875 19.2623 11.175 18.8123 11.175Z" fill="#555555"/>
<path d="M18.8123 16.425H10.5998C10.1498 16.425 9.7373 16.8 9.7373 17.2875C9.7373 17.775 10.1123 18.15 10.5998 18.15H18.7748C19.2248 18.15 19.6373 17.775 19.6373 17.2875C19.6373 16.8 19.2623 16.425 18.8123 16.425Z" fill="#555555"/>
</svg>
