<svg width="23" height="24" viewBox="0 0 23 24" fill="none" xmlns="http://www.w3.org/2000/svg">
<path d="M20.7375 17.175H20.5875V14.2125C20.5875 12.8625 19.4625 11.7375 18.1125 11.7375H12.225V8.39999H17.8125C19.0875 8.39999 20.175 7.34999 20.175 6.03749V3.22499C20.175 1.94999 19.125 0.862488 17.8125 0.862488H4.9125C3.6375 0.862488 2.55 1.91249 2.55 3.22499V6.03749C2.55 7.31249 3.6 8.39999 4.9125 8.39999H10.5V11.7375H4.6125C3.2625 11.7375 2.1375 12.8625 2.1375 14.2125V17.175H1.9875C0.9 17.175 0 18.075 0 19.1625V21.15C0 22.2375 0.9 23.1375 1.9875 23.1375H3.975C5.0625 23.1375 5.9625 22.2375 5.9625 21.15V19.125C5.9625 18.0375 5.0625 17.1375 3.975 17.1375H3.825V14.175C3.825 13.725 4.1625 13.3875 4.6125 13.3875H10.5V17.1375H10.35C9.2625 17.1375 8.3625 18.0375 8.3625 19.125V21.1125C8.3625 22.2 9.2625 23.1 10.35 23.1H12.3375C13.425 23.1 14.325 22.2 14.325 21.1125V19.125C14.325 18.0375 13.425 17.1375 12.3375 17.1375H12.1875V13.3875H18.1125C18.5625 13.3875 18.9 13.725 18.9 14.175V17.1375H18.75C17.6625 17.1375 16.7625 18.0375 16.7625 19.125V21.1125C16.7625 22.2 17.6625 23.1 18.75 23.1H20.7375C21.825 23.1 22.725 22.2 22.725 21.1125V19.125C22.725 18.0375 21.825 17.175 20.7375 17.175ZM4.275 6.03749V3.22499C4.275 2.84999 4.575 2.54999 4.95 2.54999H17.85C18.225 2.54999 18.525 2.84999 18.525 3.22499V6.03749C18.525 6.41249 18.225 6.71249 17.85 6.71249H4.9125C4.575 6.71249 4.275 6.41249 4.275 6.03749ZM4.275 19.125V21.1125C4.275 21.2625 4.1625 21.4125 3.975 21.4125H1.9875C1.8375 21.4125 1.6875 21.3 1.6875 21.1125V19.125C1.6875 18.975 1.8 18.825 1.9875 18.825H3.975C4.1625 18.8625 4.275 18.975 4.275 19.125ZM12.6375 19.125V21.1125C12.6375 21.2625 12.525 21.4125 12.3375 21.4125H10.35C10.2 21.4125 10.05 21.3 10.05 21.1125V19.125C10.05 18.975 10.1625 18.825 10.35 18.825H12.3375C12.525 18.8625 12.6375 18.975 12.6375 19.125ZM21.0375 21.15C21.0375 21.3 20.925 21.45 20.7375 21.45H18.75C18.6 21.45 18.45 21.3375 18.45 21.15V19.125C18.45 18.975 18.5625 18.825 18.75 18.825H20.7375C20.8875 18.825 21.0375 18.9375 21.0375 19.125V21.15Z" fill="#555555"/>
</svg>
