<svg width="12" height="16" viewBox="0 0 12 16" fill="none" xmlns="http://www.w3.org/2000/svg">
<path d="M11.1752 9.125L6.82522 4.77499C6.40022 4.34999 5.75022 4.19999 5.17522 4.42499L2.87522 5.29999C2.80022 4.97499 2.75022 4.62499 2.75022 4.29999C2.75022 3.19999 3.17522 2.17499 3.95022 1.39999C4.17522 1.17499 4.17522 0.824994 3.95022 0.599994C3.72522 0.374994 3.37522 0.374994 3.15022 0.599994C2.15022 1.59999 1.62522 2.89999 1.62522 4.29999C1.62522 4.79999 1.70022 5.29999 1.82522 5.74999C1.77522 5.79999 1.72522 5.87499 1.67522 5.94999L0.47522 9.125C0.25022 9.7 0.40022 10.325 0.82522 10.775L5.17522 15.125C5.47522 15.425 5.87522 15.575 6.27522 15.575C6.67522 15.575 7.07522 15.425 7.37522 15.125L11.1752 11.325C11.7752 10.7 11.7752 9.725 11.1752 9.125ZM10.3752 10.5L6.57522 14.325C6.42522 14.475 6.15022 14.475 6.00022 14.325L1.62522 9.975C1.50022 9.85 1.47522 9.675 1.52522 9.52499L2.45022 7.12499C2.65022 7.44999 2.87522 7.72499 3.15022 7.99999C3.15022 7.99999 3.15022 7.99999 3.17522 7.99999C3.20022 8.02499 3.22522 8.04999 3.25022 8.04999C3.27522 8.04999 3.27522 8.07499 3.30022 8.07499C3.32522 8.07499 3.32522 8.1 3.35022 8.1C3.42522 8.125 3.47522 8.14999 3.55022 8.14999C3.55022 8.14999 3.55022 8.14999 3.57522 8.14999C3.57522 8.14999 3.57522 8.14999 3.60022 8.14999C3.67522 8.14999 3.72522 8.125 3.80022 8.1C3.82522 8.1 3.85022 8.075 3.87522 8.04999H3.90022C3.92522 8.02499 3.95022 7.99999 3.97522 7.97499C4.00022 7.94999 4.02522 7.92499 4.05022 7.89999V7.87499C4.07522 7.84999 4.07522 7.825 4.10022 7.79999C4.10022 7.77499 4.12522 7.72499 4.12522 7.69999C4.12522 7.67499 4.12522 7.62499 4.12522 7.59999C4.12522 7.57499 4.12522 7.52499 4.12522 7.49999C4.12522 7.47499 4.10022 7.44999 4.10022 7.39999C4.10022 7.39999 4.10022 7.39999 4.10022 7.37499L4.07522 7.34999C4.05022 7.29999 4.02522 7.24999 3.97522 7.19999C3.72522 6.94999 3.50022 6.64999 3.32522 6.34999L5.60022 5.47499C5.75022 5.42499 5.92522 5.44999 6.05022 5.57499L10.4002 9.925C10.5252 10.075 10.5252 10.35 10.3752 10.5Z" fill="#555555"/>
</svg>
