<svg width="24" height="24" viewBox="0 0 24 24" fill="none" xmlns="http://www.w3.org/2000/svg">
<path d="M20.3992 0.674988H3.59922C1.98672 0.674988 0.636719 1.98749 0.636719 3.63749V20.4375C0.636719 22.05 1.94922 23.3625 3.59922 23.3625H20.3992C22.0117 23.3625 23.3242 22.05 23.3242 20.4375V3.59999C23.3242 1.98749 22.0117 0.674988 20.3992 0.674988ZM3.59922 2.32499H20.3992C21.0742 2.32499 21.6367 2.88749 21.6367 3.59999V14.8125H2.32422V3.59999C2.32422 2.92499 2.92422 2.32499 3.59922 2.32499ZM2.32422 20.4V16.5H11.1367V21.6375H3.59922C2.92422 21.675 2.32422 21.075 2.32422 20.4ZM20.3992 21.675H12.8242V16.5H21.6367V20.4C21.6742 21.075 21.0742 21.675 20.3992 21.675Z" fill="#555555"/>
</svg>
