<svg width="10" height="10" viewBox="0 0 10 10" fill="none" xmlns="http://www.w3.org/2000/svg">
<path d="M0.749902 9.82499C0.599902 9.82499 0.449902 9.77499 0.349902 9.64999C0.124902 9.42499 0.124902 9.07499 0.349902 8.84999L7.9249 1.27499H1.8749C1.5749 1.27499 1.3249 1.02499 1.3249 0.724988C1.3249 0.424988 1.5749 0.174988 1.8749 0.174988H9.2499C9.5499 0.174988 9.7999 0.424988 9.7999 0.724988V8.14999C9.7999 8.44999 9.5499 8.69999 9.2499 8.69999C8.9499 8.69999 8.6999 8.44999 8.6999 8.14999V2.12499L1.1499 9.67499C1.0499 9.77499 0.899902 9.82499 0.749902 9.82499Z" fill="#555555"/>
</svg>
