<svg width="17" height="16" viewBox="0 0 17 16" fill="none" xmlns="http://www.w3.org/2000/svg">
<path d="M12.3234 2.1998H10.3984V1.7748C10.3984 1.0248 9.79844 0.424805 9.04844 0.424805H7.12344C6.37344 0.424805 5.77344 1.0248 5.77344 1.7748V2.1998H3.84844C3.12344 2.1998 2.52344 2.7998 2.52344 3.5248V4.2748C2.52344 4.8248 2.84844 5.2748 3.32344 5.4748L3.72344 14.1248C3.77344 14.9498 4.42344 15.5748 5.24844 15.5748H10.8734C11.6984 15.5748 12.3734 14.9248 12.3984 14.1248L12.8484 5.4498C13.3234 5.2498 13.6484 4.7748 13.6484 4.2498V3.4998C13.6484 2.7998 13.0484 2.1998 12.3234 2.1998ZM6.92344 1.7748C6.92344 1.6498 7.02344 1.5498 7.14844 1.5498H9.07344C9.19844 1.5498 9.29844 1.6498 9.29844 1.7748V2.1998H6.94844V1.7748H6.92344ZM3.67344 3.5248C3.67344 3.4248 3.74844 3.3248 3.87344 3.3248H12.3234C12.4234 3.3248 12.5234 3.3998 12.5234 3.5248V4.2748C12.5234 4.3748 12.4484 4.4748 12.3234 4.4748H3.87344C3.77344 4.4748 3.67344 4.3998 3.67344 4.2748V3.5248ZM10.8984 14.4498H5.29844C5.07344 14.4498 4.89844 14.2748 4.89844 14.0748L4.49844 5.5998H11.7234L11.3234 14.0748C11.2984 14.2748 11.1234 14.4498 10.8984 14.4498Z" fill="#C42C2C"/>
<path d="M8.09844 8.09961C7.79844 8.09961 7.52344 8.34961 7.52344 8.67461V11.8496C7.52344 12.1496 7.77344 12.4246 8.09844 12.4246C8.39844 12.4246 8.67344 12.1746 8.67344 11.8496V8.67461C8.67344 8.34961 8.39844 8.09961 8.09844 8.09961Z" fill="#C42C2C"/>
<path d="M10.0976 8.60004C9.7726 8.57504 9.5226 8.80004 9.4976 9.12504L9.3476 11.325C9.3226 11.625 9.5476 11.9 9.8726 11.925C9.8976 11.925 9.8976 11.925 9.9226 11.925C10.2226 11.925 10.4726 11.7 10.4726 11.4L10.6226 9.20004C10.6226 8.87504 10.3976 8.62504 10.0976 8.60004Z" fill="#C42C2C"/>
<path d="M6.0736 8.60004C5.7736 8.62504 5.5236 8.90004 5.5486 9.20004L5.7236 11.4C5.7486 11.7 5.9986 11.925 6.2736 11.925C6.2986 11.925 6.2986 11.925 6.3236 11.925C6.6236 11.9 6.8736 11.625 6.8486 11.325L6.6736 9.12504C6.6736 8.80004 6.3986 8.57504 6.0736 8.60004Z" fill="#C42C2C"/>
</svg>
