<svg width="22" height="24" viewBox="0 0 22 24" fill="none" xmlns="http://www.w3.org/2000/svg">
<path d="M15.9499 12.225C15.7624 12.225 15.5749 12.225 15.4249 12.2625C14.3374 11.025 13.0249 10.125 11.5624 9.67505C13.0249 8.85005 14.0374 7.27505 14.0374 5.47505C14.0374 2.81255 11.8624 0.675049 9.2374 0.675049C6.5749 0.675049 4.4374 2.85005 4.4374 5.47505C4.4374 7.27505 5.4499 8.85005 6.9124 9.67505C5.4499 10.125 4.0999 11.025 3.0124 12.3C1.4374 14.175 0.537402 16.8 0.462402 19.65C0.462402 19.9875 0.649902 20.2875 0.912402 20.4375C1.9249 20.925 5.4499 22.5375 9.2374 22.5375C10.3249 22.5375 11.4499 22.425 12.5749 22.2001C13.5124 22.9125 14.6749 23.3625 15.9499 23.3625C19.0249 23.3625 21.4999 20.85 21.4999 17.8125C21.4999 14.775 19.0249 12.225 15.9499 12.225ZM9.2374 2.36255C10.9624 2.36255 12.3499 3.75005 12.3499 5.47505C12.3499 7.20005 10.9624 8.58755 9.2374 8.58755C7.5124 8.58755 6.1249 7.20005 6.1249 5.47505C6.1249 3.75005 7.5124 2.36255 9.2374 2.36255ZM2.1874 19.1625C2.3374 16.9125 3.0874 14.8875 4.3249 13.3875C5.6374 11.85 7.3999 10.9875 9.2749 10.9875C10.8874 10.9875 12.3874 11.625 13.6249 12.75C11.7499 13.65 10.4374 15.5625 10.4374 17.775C10.4374 18.8625 10.7374 19.8375 11.2999 20.7001C10.6249 20.775 9.9499 20.85 9.3124 20.85C6.3124 20.85 3.4624 19.7625 2.1874 19.1625ZM15.9499 21.675C13.8124 21.675 12.0874 19.95 12.0874 17.8125C12.0874 15.675 13.8124 13.95 15.9499 13.95C18.0874 13.95 19.8124 15.675 19.8124 17.8125C19.8124 19.95 18.0874 21.675 15.9499 21.675Z" fill="#1F845A"/>
<path d="M17.2248 16.0501L15.3498 17.8876L15.0498 17.5876C14.7498 17.2501 14.1873 17.2126 13.8498 17.5501C13.5123 17.8501 13.4748 18.4126 13.8123 18.7501L14.6748 19.6876C14.8248 19.8376 15.0498 19.9501 15.2748 19.9501C15.2748 19.9501 15.2748 19.9501 15.3123 19.9501C15.5373 19.9501 15.7623 19.8751 15.9123 19.7251L18.3873 17.2876C18.7248 16.9501 18.7248 16.4251 18.3873 16.0876C18.0873 15.7126 17.5623 15.7126 17.2248 16.0501Z" fill="#1F845A"/>
</svg>
