<svg width="22" height="24" viewBox="0 0 22 24" fill="none" xmlns="http://www.w3.org/2000/svg">
<path d="M15.9504 12.2248C15.7629 12.2248 15.5754 12.2248 15.4254 12.2623C14.3379 11.0248 13.0254 10.1248 11.5629 9.6748C13.0254 8.8498 14.0379 7.27481 14.0379 5.4748C14.0379 2.8123 11.8629 0.674805 9.23789 0.674805C6.57539 0.674805 4.43789 2.8498 4.43789 5.4748C4.43789 7.27481 5.45039 8.8498 6.91289 9.6748C5.45039 10.1248 4.10039 11.0248 3.01289 12.2998C1.43789 14.1748 0.537891 16.7998 0.462891 19.6498C0.462891 19.9873 0.650391 20.2873 0.912891 20.4373C1.92539 20.9248 5.45039 22.5373 9.23789 22.5373C10.3254 22.5373 11.4504 22.4248 12.5754 22.1998C13.5129 22.9123 14.6754 23.3623 15.9504 23.3623C19.0254 23.3623 21.5004 20.8498 21.5004 17.8123C21.5004 14.7748 19.0254 12.2248 15.9504 12.2248ZM9.23789 2.3623C10.9629 2.3623 12.3504 3.7498 12.3504 5.4748C12.3504 7.1998 10.9629 8.58731 9.23789 8.58731C7.51289 8.58731 6.12539 7.1998 6.12539 5.4748C6.12539 3.7498 7.51289 2.3623 9.23789 2.3623ZM2.18789 19.1623C2.33789 16.9123 3.08789 14.8873 4.32539 13.3873C5.63789 11.8498 7.40039 10.9873 9.27539 10.9873C10.8879 10.9873 12.3879 11.6248 13.6254 12.7498C11.7504 13.6498 10.4379 15.5623 10.4379 17.7748C10.4379 18.8623 10.7379 19.8373 11.3004 20.6998C10.6254 20.7748 9.95039 20.8498 9.31289 20.8498C6.31289 20.8498 3.46289 19.7623 2.18789 19.1623ZM15.9504 21.6748C13.8129 21.6748 12.0879 19.9498 12.0879 17.8123C12.0879 15.6748 13.8129 13.9498 15.9504 13.9498C18.0879 13.9498 19.8129 15.6748 19.8129 17.8123C19.8129 19.9498 18.0879 21.6748 15.9504 21.6748Z" fill="#1F845A"/>
<path d="M17.2258 16.0499L15.3508 17.8874L15.0508 17.5874C14.7508 17.2499 14.1883 17.2124 13.8508 17.5499C13.5133 17.8499 13.4758 18.4124 13.8133 18.7499L14.6758 19.6874C14.8258 19.8374 15.0508 19.9499 15.2758 19.9499C15.2758 19.9499 15.2758 19.9499 15.3133 19.9499C15.5383 19.9499 15.7633 19.8749 15.9133 19.7249L18.3883 17.2874C18.7258 16.9499 18.7258 16.4249 18.3883 16.0874C18.0883 15.7124 17.5633 15.7124 17.2258 16.0499Z" fill="#1F845A"/>
</svg>
