<svg width="22" height="24" viewBox="0 0 22 24" fill="none" xmlns="http://www.w3.org/2000/svg">
<path d="M19.7004 13.6873C19.7004 13.6498 19.7004 13.6498 19.7004 13.6873C19.6629 13.6498 19.6629 13.6498 19.6629 13.6498C18.6879 12.7873 17.3754 12.2248 15.9504 12.2248C15.7629 12.2248 15.5754 12.2248 15.4254 12.2623C14.3379 11.0248 13.0254 10.1248 11.5629 9.6748C13.0254 8.8498 14.0379 7.27481 14.0379 5.4748C14.0379 2.8123 11.8629 0.674805 9.23789 0.674805C6.57539 0.674805 4.43789 2.8498 4.43789 5.4748C4.43789 7.27481 5.45039 8.8498 6.91289 9.6748C5.45039 10.1248 4.10039 11.0248 3.01289 12.2998C1.43789 14.1748 0.537891 16.7998 0.462891 19.6498C0.462891 19.9873 0.650391 20.2873 0.912891 20.4373C1.92539 20.9248 5.45039 22.5373 9.23789 22.5373C10.3254 22.5373 11.4504 22.4248 12.5754 22.1998C13.5129 22.9123 14.6754 23.3623 15.9504 23.3623C19.0254 23.3623 21.5004 20.8498 21.5004 17.8123C21.5379 16.1623 20.8254 14.6998 19.7004 13.6873ZM17.9004 14.4373L12.9504 20.2123C12.4254 19.5373 12.0879 18.7123 12.0879 17.8123C12.0879 15.6748 13.8129 13.9498 15.9504 13.9498C16.6629 13.9123 17.3379 14.0998 17.9004 14.4373ZM9.23789 2.3623C10.9629 2.3623 12.3504 3.7498 12.3504 5.4748C12.3504 7.1998 10.9629 8.58731 9.23789 8.58731C7.51289 8.58731 6.12539 7.1998 6.12539 5.4748C6.12539 3.7498 7.51289 2.3623 9.23789 2.3623ZM2.18789 19.1623C2.33789 16.9123 3.08789 14.8873 4.32539 13.3873C5.63789 11.8498 7.40039 10.9873 9.27539 10.9873C10.8879 10.9873 12.3879 11.6248 13.6254 12.7498C11.7504 13.6498 10.4379 15.5623 10.4379 17.7748C10.4379 18.8623 10.7379 19.8373 11.3004 20.6998C10.6254 20.7748 9.95039 20.8498 9.31289 20.8498C6.31289 20.8498 3.46289 19.7623 2.18789 19.1623ZM15.9504 21.6748C15.3504 21.6748 14.7504 21.5248 14.2629 21.2623L19.1379 15.5623C19.5879 16.1998 19.8504 16.9498 19.8504 17.7748C19.8504 19.9123 18.0879 21.6748 15.9504 21.6748Z" fill="#C42C2C"/>
</svg>
