<svg width="16" height="16" viewBox="0 0 16 16" fill="none" xmlns="http://www.w3.org/2000/svg">
<g clip-path="url(#clip0_53_965)">
<path d="M7.97574 4.87273H7.9515C7.66059 4.87273 7.39392 5.11515 7.39392 5.4303C7.39392 5.74545 7.63634 5.98788 7.9515 5.98788H7.97574C8.26665 5.98788 8.53332 5.74545 8.53332 5.4303C8.53332 5.11515 8.29089 4.87273 7.97574 4.87273Z" fill="#B74E06"/>
<path d="M7.97567 6.78788C7.68476 6.78788 7.41809 7.0303 7.41809 7.34546V11.0788C7.41809 11.3697 7.66052 11.6364 7.97567 11.6364C8.26658 11.6364 8.53324 11.3939 8.53324 11.0788V7.32121C8.53324 7.0303 8.29082 6.78788 7.97567 6.78788Z" fill="#B74E06"/>
<path d="M7.9757 0.678787C3.92722 0.678787 0.630249 3.95151 0.630249 8C0.630249 12.0485 3.92722 15.3455 7.9757 15.3455C12.0242 15.3455 15.2969 12.0485 15.2969 8C15.2969 3.95151 12.0242 0.678787 7.9757 0.678787ZM7.9757 14.2545C4.53328 14.2545 1.72116 11.4424 1.72116 8C1.72116 4.55758 4.53328 1.74545 7.9757 1.74545C11.4181 1.74545 14.206 4.55758 14.206 8C14.206 11.4424 11.4181 14.2545 7.9757 14.2545Z" fill="#B74E06"/>
</g>
<defs>
<clipPath id="clip0_53_965">
<rect width="16" height="16" fill="white"/>
</clipPath>
</defs>
</svg>
