<svg width="24" height="24" viewBox="0 0 24 24" fill="none" xmlns="http://www.w3.org/2000/svg">
<g clip-path="url(#clip0_199_2758)">
<path d="M13.2367 16.0875C12.5242 16.0875 11.8117 15.825 11.2492 15.2625L9.93672 13.95C9.59922 13.6125 9.59922 13.0875 9.93672 12.75C10.2742 12.4125 10.7992 12.4125 11.1367 12.75L12.4492 14.0625C12.8992 14.5125 13.5742 14.5125 14.0242 14.0625L21.2992 6.78748C21.7492 6.33748 21.7492 5.66248 21.2992 5.21248L18.7492 2.66248C18.2992 2.21248 17.6242 2.21248 17.1742 2.66248L13.6492 6.18748C13.3117 6.52498 12.7867 6.52498 12.4492 6.18748C12.1117 5.84998 12.1117 5.32498 12.4492 4.98748L15.9742 1.46248C17.0617 0.374976 18.8242 0.374976 19.9492 1.46248L22.4992 4.01248C23.5867 5.09998 23.5867 6.86248 22.4992 7.98748L15.2242 15.2625C14.6992 15.825 13.9867 16.0875 13.2367 16.0875Z" fill="#555555"/>
<path d="M5.99961 23.325C5.28711 23.325 4.57461 23.0625 4.01211 22.5L1.46211 19.95C0.374609 18.9 0.374609 17.1375 1.46211 16.0125L8.73711 8.73748C9.26211 8.21248 9.97461 7.91248 10.7246 7.91248C11.4746 7.91248 12.1871 8.21248 12.7121 8.73748L14.0246 10.05C14.3621 10.3875 14.3621 10.9125 14.0246 11.25C13.6871 11.5875 13.1621 11.5875 12.8246 11.25L11.5121 9.93748C11.0996 9.52498 10.3496 9.52498 9.93711 9.93748L2.66211 17.2125C2.21211 17.6625 2.21211 18.3375 2.66211 18.7875L5.21211 21.3375C5.66211 21.7875 6.33711 21.7875 6.78711 21.3375L10.3121 17.8125C10.6496 17.475 11.1746 17.475 11.5121 17.8125C11.8496 18.15 11.8496 18.675 11.5121 19.0125L7.98711 22.5375C7.42461 23.0625 6.71211 23.325 5.99961 23.325Z" fill="#555555"/>
</g>
<defs>
<clipPath id="clip0_199_2758">
<rect width="24" height="24" fill="white"/>
</clipPath>
</defs>
</svg>
