<svg width="24" height="24" viewBox="0 0 24 24" fill="none" xmlns="http://www.w3.org/2000/svg">
<path fill-rule="evenodd" clip-rule="evenodd" d="M6.58597 17.829C6.7717 18.0148 6.99221 18.1622 7.23492 18.2628C7.47762 18.3633 7.73776 18.4151 8.00047 18.4151C8.26318 18.4151 8.52332 18.3633 8.76602 18.2628C9.00873 18.1622 9.22924 18.0148 9.41497 17.829L6.58497 15C6.39917 15.1857 6.25178 15.4062 6.15122 15.6489C6.05065 15.8917 5.9989 16.1518 5.9989 16.4145C5.9989 16.6772 6.05065 16.9374 6.15122 17.1801C6.25178 17.4228 6.40017 17.6433 6.58597 17.829ZM11.384 5.478C11.8524 5.00875 12.4089 4.63663 13.0216 4.383C13.6342 4.12937 14.2909 3.99921 14.954 4C15.926 4 16.899 4.28 17.742 4.839C17.762 4.813 17.785 4.789 17.808 4.765C17.9043 4.66644 18.0197 4.58862 18.1472 4.53633C18.2747 4.48405 18.4116 4.45841 18.5493 4.46099C18.6871 4.46357 18.8229 4.49432 18.9484 4.55134C19.0738 4.60837 19.1863 4.69046 19.2788 4.79256C19.3713 4.89467 19.442 5.01463 19.4864 5.14507C19.5309 5.27551 19.5482 5.41366 19.5372 5.55103C19.5263 5.68839 19.4873 5.82206 19.4228 5.94382C19.3583 6.06558 19.2695 6.17284 19.162 6.259C19.8046 7.22976 20.0919 8.3928 19.9752 9.55112C19.8586 10.7094 19.3452 11.7918 18.522 12.615L17.797 13.34C17.015 14.123 15.984 15.55 15.485 16.547L13.976 19.563C13.727 20.063 13.203 20.147 12.805 19.75L4.24897 11.195C3.85197 10.798 3.94097 10.271 4.43597 10.023L7.45297 8.515C8.44197 8.021 9.87297 6.989 10.659 6.203L11.384 5.478ZM14.123 15.108C14.64 14.133 15.691 12.712 16.477 11.926L17.202 11.2C17.6984 10.7032 18.0081 10.0502 18.0786 9.35144C18.1491 8.65266 17.9762 7.95096 17.589 7.365C17.399 7.079 16.871 6.599 16.73 6.505C16.2308 6.17484 15.6454 5.99918 15.047 6C14.6466 5.99937 14.25 6.07785 13.88 6.23093C13.51 6.384 13.1739 6.60866 12.891 6.892L11.941 7.843C11.157 8.628 9.72197 9.663 8.73997 10.154L6.99997 11.024L13.07 17.093L14.123 15.108Z" fill="#44546F"/>
</svg>
