<svg width="25" height="24" viewBox="0 0 25 24" fill="none" xmlns="http://www.w3.org/2000/svg">
<g clip-path="url(#clip0_16_1658)">
<path d="M23.2253 11.175H13.5878V1.50001C13.5878 1.05001 13.2128 0.637512 12.7253 0.637512C12.2753 0.637512 11.8628 1.01251 11.8628 1.50001V11.175H2.22529C1.77529 11.175 1.36279 11.55 1.36279 12.0375C1.36279 12.4875 1.73779 12.9 2.22529 12.9H11.9003V22.5C11.9003 22.95 12.2753 23.3625 12.7628 23.3625C13.2128 23.3625 13.6253 22.9875 13.6253 22.5V12.8625H23.2253C23.6753 12.8625 24.0878 12.4875 24.0878 12C24.0878 11.55 23.6753 11.175 23.2253 11.175Z" fill="#555555"/>
</g>
<defs>
<clipPath id="clip0_16_1658">
<rect x="0.725098" width="24" height="24" rx="3" fill="white"/>
</clipPath>
</defs>
</svg>
