<svg width="24" height="24" viewBox="0 0 24 24" fill="none" xmlns="http://www.w3.org/2000/svg">
<path d="M12.0377 7.35001C9.48769 7.35001 7.3877 9.45001 7.3877 12C7.3877 14.5875 9.48769 16.65 12.0377 16.65C14.5877 16.65 16.6877 14.5875 16.6877 12C16.6877 9.45001 14.5877 7.35001 12.0377 7.35001ZM12.0377 15C10.3877 15 9.0752 13.65 9.0752 12.0375C9.0752 10.3875 10.3877 9.07501 12.0377 9.07501C13.6877 9.07501 15.0002 10.3875 15.0002 12C15.0002 13.65 13.6502 15 12.0377 15Z" fill="#555555"/>
<path d="M22.7627 14.2875L20.6627 13.125C20.7377 12.7125 20.7752 12.3 20.7752 11.8875C20.7752 11.4375 20.7377 11.025 20.7002 10.6125L22.8377 9.41251C23.3252 9.15001 23.5127 8.55001 23.2877 8.02501L21.1127 4.35001C20.8502 3.90001 20.2502 3.71251 19.7627 3.90001L17.5127 5.13751C17.4002 5.06251 17.2877 4.95001 17.2127 4.87501C16.8002 4.53751 16.4252 4.20001 15.8252 3.90001C15.7877 3.90001 15.7502 3.86251 15.7502 3.78751V2.43751C15.7502 1.46251 14.9627 0.637512 13.9502 0.637512H10.0877C9.11273 0.637512 8.28773 1.46251 8.28773 2.43751V3.90001C8.28773 3.93751 8.25023 3.97501 8.21273 4.01251C7.65023 4.27501 7.23773 4.65001 6.78773 4.98751C6.71273 5.06251 6.60023 5.13751 6.52523 5.21251L4.53773 4.08751C3.78773 3.67501 3.15023 3.93751 2.88773 4.38751L0.825227 7.95001C0.712727 8.25001 0.675227 8.55001 0.750227 8.85001C0.825227 9.15001 1.01273 9.37501 1.27523 9.52501L3.37523 10.65C3.30023 11.025 3.30023 11.4375 3.30023 11.925C3.30023 12.3375 3.33773 12.75 3.37523 13.1625L1.20023 14.3625C0.712727 14.625 0.525227 15.225 0.750227 15.75L2.92523 19.425C3.18773 19.875 3.75023 20.0625 4.27523 19.875L6.52523 18.6375C6.63773 18.7125 6.71273 18.7875 6.82523 18.9C7.23773 19.275 7.65023 19.6125 8.25023 19.875C8.28773 19.875 8.32523 19.9125 8.32523 19.9875V21.6C8.32523 22.575 9.11273 23.4 10.1252 23.4H13.9502C14.9252 23.4 15.7502 22.575 15.7502 21.6V19.875C15.7502 19.8375 15.7877 19.8 15.8252 19.7625C16.3877 19.5 16.7627 19.1625 17.2127 18.7875C17.3252 18.7125 17.4002 18.6375 17.5127 18.525L19.5002 19.65C20.2502 20.0625 20.8502 19.8 21.1502 19.35L23.2502 15.7875C23.4002 15.525 23.4377 15.225 23.3627 14.9625C23.2877 14.7 23.0252 14.4375 22.7627 14.2875ZM19.9127 18L18.1127 16.9875C17.5877 16.6875 16.9877 16.7625 16.5377 17.1375C16.3502 17.2875 16.2002 17.4 16.0502 17.55C15.6752 17.8875 15.4127 18.1125 15.0377 18.2625C14.4377 18.5625 14.0252 19.2 14.0252 19.875V21.525C14.0252 21.6 13.9877 21.6375 13.9127 21.6375H10.0877C10.0127 21.6375 9.97523 21.6 9.97523 21.525V19.9125C9.97523 19.2375 9.56273 18.6 8.96273 18.3C8.58773 18.1125 8.28773 17.8875 7.91273 17.55C7.76273 17.4375 7.61273 17.2875 7.42523 17.175C7.16273 16.9875 6.86273 16.875 6.52523 16.875C6.30023 16.875 6.03773 16.95 5.81273 17.0625L4.01273 18.075L2.51273 15.525L4.27523 14.55C4.80023 14.25 5.10023 13.6875 5.02523 13.05C4.98773 12.675 4.95023 12.3 4.95023 11.925C4.95023 11.5125 4.98773 11.1375 5.02523 10.8375C5.13773 10.2 4.83773 9.56251 4.27523 9.26251L2.62523 8.32501L4.08773 5.81251L5.88773 6.82501C6.41273 7.12501 7.01273 7.05001 7.46273 6.67501C7.61273 6.56251 7.76273 6.41251 7.91273 6.30001C8.28773 5.96251 8.58773 5.73751 8.96273 5.55001C9.60023 5.25001 9.97523 4.61251 9.97523 3.93751V2.47501C9.97523 2.40001 10.0127 2.36251 10.0877 2.36251H13.9127C13.9877 2.36251 14.0252 2.40001 14.0252 2.47501V3.90001C14.0252 4.57501 14.4377 5.21251 15.0377 5.51251C15.4127 5.70001 15.6752 5.92501 16.0502 6.22501C16.2002 6.37501 16.3502 6.48751 16.5377 6.63751C16.9877 7.01251 17.6252 7.05001 18.1127 6.75001L19.9127 5.73751L21.4127 8.28751L19.6877 9.26251C19.1627 9.56251 18.8627 10.2 18.9752 10.8375C19.0127 11.175 19.0502 11.55 19.0502 11.925C19.0502 12.3 19.0127 12.675 18.9377 13.05C18.8252 13.6875 19.1252 14.2875 19.6877 14.5875L21.3752 15.525L19.9127 18Z" fill="#555555"/>
</svg>
