<svg width="16" height="14" viewBox="0 0 16 14" fill="none" xmlns="http://www.w3.org/2000/svg">
<path d="M14.2002 6.74999C13.6752 6.12499 13.0252 5.67499 12.3252 5.39999C13.0252 4.92499 13.4752 4.12499 13.4752 3.19999C13.4752 1.72499 12.2752 0.549988 10.8252 0.549988C9.3752 0.549988 8.1502 1.74999 8.1502 3.22499C8.1502 4.12499 8.6002 4.94999 9.3002 5.42499C8.6002 5.69999 7.9502 6.14999 7.4252 6.77499C7.4002 6.79999 7.4002 6.82499 7.3752 6.82499C7.1502 6.69999 6.9252 6.59999 6.7002 6.49999C7.4002 6.02499 7.8502 5.22499 7.8502 4.29999C7.8502 2.82499 6.6502 1.64999 5.2002 1.64999C3.7502 1.64999 2.5502 2.84999 2.5502 4.29999C2.5502 5.19999 3.0002 6.02499 3.7002 6.49999C3.0002 6.77499 2.3502 7.22499 1.8252 7.84999C0.975195 8.87499 0.475195 10.275 0.450195 11.8C0.450195 12.025 0.575195 12.225 0.750195 12.3C1.2752 12.575 3.1502 13.425 5.2002 13.425C7.4002 13.425 9.1752 12.55 9.6752 12.3C9.7002 12.3 9.7002 12.275 9.7252 12.275C10.1002 12.325 10.4752 12.35 10.8252 12.35C13.0002 12.35 14.8002 11.475 15.2752 11.225C15.4502 11.125 15.5752 10.925 15.5752 10.725C15.5252 9.19999 15.0502 7.77499 14.2002 6.74999ZM10.8002 1.67499C11.6502 1.67499 12.3252 2.37499 12.3252 3.19999C12.3252 4.02499 11.6502 4.74999 10.8002 4.74999C9.9502 4.74999 9.2752 4.04999 9.2752 3.22499C9.2752 2.39999 9.9502 1.67499 10.8002 1.67499ZM5.2002 2.74999C6.0502 2.74999 6.7252 3.44999 6.7252 4.27499C6.7252 5.09999 6.0252 5.79999 5.2002 5.79999C4.3752 5.79999 3.6752 5.09999 3.6752 4.27499C3.6752 3.44999 4.3502 2.74999 5.2002 2.74999ZM5.2002 12.325C3.7002 12.325 2.2502 11.775 1.5752 11.475C1.6502 10.35 2.0502 9.32499 2.6752 8.57499C3.3502 7.77499 4.2502 7.34999 5.2002 7.34999C6.1752 7.34999 7.0502 7.77499 7.7252 8.57499C8.3502 9.32499 8.7502 10.35 8.8252 11.475C8.2002 11.775 6.8002 12.325 5.2002 12.325ZM10.8002 11.25C10.5252 11.25 10.2252 11.225 9.9002 11.175C9.7752 9.89999 9.3002 8.72499 8.5752 7.84999C8.47519 7.72499 8.3752 7.62499 8.2502 7.49999C8.2502 7.49999 8.2502 7.49999 8.2752 7.47499C8.9502 6.67499 9.8252 6.24999 10.8002 6.24999C11.7752 6.24999 12.6502 6.67499 13.3252 7.47499C13.9502 8.22499 14.3252 9.24999 14.4252 10.375C13.7502 10.7 12.4002 11.25 10.8002 11.25Z" fill="#555555"/>
</svg>
